<svg width="14" height="15" viewBox="0 0 14 15" fill="none" xmlns="http://www.w3.org/2000/svg">
<path d="M1.66659 3.49998H0.333252V12.8333C0.333252 13.5666 0.933252 14.1666 1.66659 14.1666H10.9999V12.8333H1.66659V3.49998ZM12.3333 0.833313H4.33325C3.59992 0.833313 2.99992 1.43331 2.99992 2.16665V10.1666C2.99992 10.9 3.59992 11.5 4.33325 11.5H12.3333C13.0666 11.5 13.6666 10.9 13.6666 10.1666V2.16665C13.6666 1.43331 13.0666 0.833313 12.3333 0.833313ZM11.6666 6.83331H4.99992V5.49998H11.6666V6.83331ZM8.99992 9.49998H4.99992V8.16665H8.99992V9.49998ZM11.6666 4.16665H4.99992V2.83331H11.6666V4.16665Z" fill="white"/>
</svg>
