<svg width="14" height="15" viewBox="0 0 14 15" fill="none" xmlns="http://www.w3.org/2000/svg">
<path d="M6.99325 0.833313C3.31325 0.833313 0.333252 3.81998 0.333252 7.49998C0.333252 11.18 3.31325 14.1666 6.99325 14.1666C10.6799 14.1666 13.6666 11.18 13.6666 7.49998C13.6666 3.81998 10.6799 0.833313 6.99325 0.833313ZM11.6133 4.83331H9.64659C9.43325 3.99998 9.12659 3.19998 8.72659 2.45998C9.95325 2.87998 10.9733 3.73331 11.6133 4.83331ZM6.99992 2.19331C7.55325 2.99331 7.98659 3.87998 8.27325 4.83331H5.72659C6.01325 3.87998 6.44659 2.99331 6.99992 2.19331ZM1.83992 8.83331C1.73325 8.40665 1.66659 7.95998 1.66659 7.49998C1.66659 7.03998 1.73325 6.59331 1.83992 6.16665H4.09325C4.03992 6.60665 3.99992 7.04665 3.99992 7.49998C3.99992 7.95331 4.03992 8.39331 4.09325 8.83331H1.83992ZM2.38659 10.1666H4.35325C4.56659 11 4.87325 11.8 5.27325 12.54C4.04659 12.12 3.02659 11.2733 2.38659 10.1666ZM4.35325 4.83331H2.38659C3.02659 3.72665 4.04659 2.87998 5.27325 2.45998C4.87325 3.19998 4.56659 3.99998 4.35325 4.83331ZM6.99992 12.8066C6.44659 12.0066 6.01325 11.12 5.72659 10.1666H8.27325C7.98659 11.12 7.55325 12.0066 6.99992 12.8066ZM8.55992 8.83331H5.43992C5.37992 8.39331 5.33325 7.95331 5.33325 7.49998C5.33325 7.04665 5.37992 6.59998 5.43992 6.16665H8.55992C8.61992 6.59998 8.66659 7.04665 8.66659 7.49998C8.66659 7.95331 8.61992 8.39331 8.55992 8.83331ZM8.72659 12.54C9.12659 11.8 9.43325 11 9.64659 10.1666H11.6133C10.9733 11.2666 9.95325 12.12 8.72659 12.54ZM9.90659 8.83331C9.95992 8.39331 9.99992 7.95331 9.99992 7.49998C9.99992 7.04665 9.95992 6.60665 9.90659 6.16665H12.1599C12.2666 6.59331 12.3333 7.03998 12.3333 7.49998C12.3333 7.95998 12.2666 8.40665 12.1599 8.83331H9.90659Z" fill="white"/>
</svg>
