<svg width="176" height="32" viewBox="0 0 176 32" fill="none" xmlns="http://www.w3.org/2000/svg">
<g clip-path="url(#clip0_355_6149)">
<path d="M19.719 1.59097C20.0632 1.59097 20.3421 1.31118 20.3421 0.966047C20.3421 0.620912 20.0632 0.341125 19.719 0.341125C19.3749 0.341125 19.0959 0.620912 19.0959 0.966047C19.0959 1.31118 19.3749 1.59097 19.719 1.59097Z" fill="#075BA3"/>
<path d="M19.7218 1.3043C19.6551 1.3043 19.5899 1.28446 19.5344 1.24729C19.479 1.21012 19.4357 1.15729 19.4102 1.09548C19.3847 1.03368 19.378 0.965662 19.391 0.900046C19.404 0.83443 19.4361 0.774158 19.4833 0.726851C19.5305 0.679545 19.5906 0.647329 19.656 0.634277C19.7214 0.621225 19.7892 0.627924 19.8509 0.653526C19.9125 0.679128 19.9652 0.722484 20.0022 0.77811C20.0393 0.833737 20.0591 0.899136 20.0591 0.966038C20.0591 1.01046 20.0503 1.05444 20.0334 1.09548C20.0164 1.13652 19.9916 1.17381 19.9603 1.20522C19.929 1.23663 19.8918 1.26155 19.8509 1.27855C19.8099 1.29555 19.7661 1.3043 19.7218 1.3043Z" fill="#075BA3"/>
<path d="M17.844 1.59097C18.1882 1.59097 18.4671 1.31118 18.4671 0.966047C18.4671 0.620912 18.1882 0.341125 17.844 0.341125C17.4999 0.341125 17.2209 0.620912 17.2209 0.966047C17.2209 1.31118 17.4999 1.59097 17.844 1.59097Z" fill="#075BA3"/>
<path d="M17.8439 1.3043C17.7972 1.30862 17.7501 1.30313 17.7056 1.28817C17.6611 1.27321 17.6203 1.24911 17.5856 1.21741C17.5509 1.18572 17.5233 1.14711 17.5043 1.10408C17.4854 1.06104 17.4756 1.01452 17.4756 0.967472C17.4756 0.920428 17.4854 0.873902 17.5043 0.830865C17.5233 0.787829 17.5509 0.749228 17.5856 0.71753C17.6203 0.685831 17.6611 0.661732 17.7056 0.646772C17.7501 0.631811 17.7972 0.626319 17.8439 0.630645C17.9276 0.638399 18.0054 0.677239 18.0621 0.739549C18.1187 0.801858 18.1501 0.883145 18.1501 0.967472C18.1501 1.0518 18.1187 1.13309 18.0621 1.19539C18.0054 1.2577 17.9276 1.29654 17.8439 1.3043Z" fill="#075BA3"/>
<path d="M15.9803 1.59097C16.3244 1.59097 16.6034 1.31118 16.6034 0.966047C16.6034 0.620912 16.3244 0.341125 15.9803 0.341125C15.6361 0.341125 15.3572 0.620912 15.3572 0.966047C15.3572 1.31118 15.6361 1.59097 15.9803 1.59097Z" fill="#075BA3"/>
<path d="M15.9803 1.3043C15.9136 1.3043 15.8484 1.28446 15.793 1.24729C15.7375 1.21012 15.6943 1.15729 15.6687 1.09548C15.6432 1.03368 15.6365 0.965662 15.6495 0.900046C15.6626 0.83443 15.6947 0.774158 15.7419 0.726851C15.789 0.679545 15.8491 0.647329 15.9145 0.634277C15.98 0.621225 16.0478 0.627924 16.1094 0.653526C16.171 0.679128 16.2237 0.722484 16.2608 0.77811C16.2978 0.833737 16.3176 0.899136 16.3176 0.966038C16.3176 1.05575 16.2821 1.14179 16.2188 1.20522C16.1556 1.26866 16.0698 1.3043 15.9803 1.3043Z" fill="#075BA3"/>
<path d="M15.9803 3.47146C16.3244 3.47146 16.6034 3.19168 16.6034 2.84654C16.6034 2.50141 16.3244 2.22162 15.9803 2.22162C15.6361 2.22162 15.3572 2.50141 15.3572 2.84654C15.3572 3.19168 15.6361 3.47146 15.9803 3.47146Z" fill="#075BA3"/>
<path d="M15.9803 3.18195C15.9135 3.18195 15.8482 3.16204 15.7927 3.12474C15.7371 3.08744 15.6939 3.03444 15.6685 2.97247C15.643 2.91049 15.6365 2.84233 15.6498 2.77664C15.663 2.71095 15.6954 2.65068 15.7429 2.60349C15.7903 2.5563 15.8507 2.52431 15.9163 2.51159C15.9819 2.49886 16.0498 2.50597 16.1114 2.53201C16.173 2.55805 16.2254 2.60185 16.2622 2.65786C16.2989 2.71386 16.3182 2.77954 16.3176 2.84656C16.3176 2.89085 16.3089 2.93469 16.2919 2.97557C16.2749 3.01645 16.25 3.05356 16.2186 3.08474C16.1873 3.11592 16.1501 3.14056 16.1092 3.15725C16.0683 3.17394 16.0245 3.18233 15.9803 3.18195Z" fill="#075BA3"/>
<path d="M17.844 3.47146C18.1882 3.47146 18.4671 3.19168 18.4671 2.84654C18.4671 2.50141 18.1882 2.22162 17.844 2.22162C17.4999 2.22162 17.2209 2.50141 17.2209 2.84654C17.2209 3.19168 17.4999 3.47146 17.844 3.47146Z" fill="#075BA3"/>
<path d="M17.844 3.18194C17.7771 3.18251 17.7115 3.16308 17.6556 3.12613C17.5997 3.08918 17.556 3.03638 17.5301 2.97446C17.5042 2.91253 17.4973 2.84428 17.5102 2.7784C17.5232 2.71252 17.5554 2.65199 17.6027 2.60451C17.65 2.55703 17.7104 2.52475 17.7761 2.51179C17.8418 2.49883 17.9098 2.50577 17.9716 2.53173C18.0333 2.55769 18.0859 2.60149 18.1228 2.65755C18.1596 2.71361 18.179 2.77941 18.1784 2.84655C18.1784 2.9355 18.1432 3.02081 18.0805 3.08371C18.0178 3.1466 17.9327 3.18194 17.844 3.18194Z" fill="#075BA3"/>
<path d="M19.719 3.47146C20.0632 3.47146 20.3421 3.19168 20.3421 2.84654C20.3421 2.50141 20.0632 2.22162 19.719 2.22162C19.3749 2.22162 19.0959 2.50141 19.0959 2.84654C19.0959 3.19168 19.3749 3.47146 19.719 3.47146Z" fill="#075BA3"/>
<path d="M19.7218 3.18195C19.655 3.18195 19.5896 3.16204 19.5341 3.12474C19.4786 3.08744 19.4354 3.03444 19.4099 2.97247C19.3845 2.91049 19.378 2.84233 19.3912 2.77664C19.4045 2.71095 19.4369 2.65068 19.4843 2.60349C19.5318 2.5563 19.5921 2.52431 19.6578 2.51159C19.7234 2.49886 19.7913 2.50597 19.8528 2.53201C19.9144 2.55805 19.9669 2.60185 20.0036 2.65786C20.0403 2.71386 20.0596 2.77954 20.0591 2.84656C20.0591 2.89085 20.0503 2.93469 20.0333 2.97557C20.0163 3.01645 19.9915 3.05356 19.9601 3.08474C19.9287 3.11592 19.8915 3.14056 19.8506 3.15725C19.8097 3.17394 19.7659 3.18233 19.7218 3.18195Z" fill="#075BA3"/>
<path d="M17.844 5.34909C18.1882 5.34909 18.4671 5.0693 18.4671 4.72416C18.4671 4.37903 18.1882 4.09924 17.844 4.09924C17.4999 4.09924 17.2209 4.37903 17.2209 4.72416C17.2209 5.0693 17.4999 5.34909 17.844 5.34909Z" fill="#075BA3"/>
<path d="M17.8439 5.06245C17.7972 5.06677 17.7501 5.06128 17.7056 5.04632C17.6611 5.03136 17.6203 5.00726 17.5856 4.97556C17.5509 4.94386 17.5233 4.90526 17.5043 4.86223C17.4854 4.81919 17.4756 4.77266 17.4756 4.72562C17.4756 4.67858 17.4854 4.63205 17.5043 4.58901C17.5233 4.54598 17.5509 4.50738 17.5856 4.47568C17.6203 4.44398 17.6611 4.41988 17.7056 4.40492C17.7501 4.38996 17.7972 4.38447 17.8439 4.38879C17.9276 4.39655 18.0054 4.43539 18.0621 4.4977C18.1187 4.56001 18.1501 4.64129 18.1501 4.72562C18.1501 4.80995 18.1187 4.89123 18.0621 4.95354C18.0054 5.01585 17.9276 5.05469 17.8439 5.06245Z" fill="#075BA3"/>
<path d="M15.9803 5.34909C16.3244 5.34909 16.6034 5.0693 16.6034 4.72416C16.6034 4.37903 16.3244 4.09924 15.9803 4.09924C15.6361 4.09924 15.3572 4.37903 15.3572 4.72416C15.3572 5.0693 15.6361 5.34909 15.9803 5.34909Z" fill="#075BA3"/>
<path d="M15.9803 5.06245C15.9136 5.06245 15.8484 5.04261 15.793 5.00544C15.7375 4.96827 15.6943 4.91544 15.6687 4.85363C15.6432 4.79182 15.6365 4.72381 15.6495 4.65819C15.6626 4.59258 15.6947 4.53231 15.7419 4.485C15.789 4.43769 15.8491 4.40548 15.9145 4.39243C15.98 4.37937 16.0478 4.38607 16.1094 4.41167C16.171 4.43728 16.2237 4.48063 16.2608 4.53626C16.2978 4.59188 16.3176 4.65728 16.3176 4.72419C16.3176 4.8139 16.2821 4.89994 16.2188 4.96337C16.1556 5.02681 16.0698 5.06245 15.9803 5.06245Z" fill="#075BA3"/>
<path d="M14.0911 5.34909C14.4352 5.34909 14.7142 5.0693 14.7142 4.72416C14.7142 4.37903 14.4352 4.09924 14.0911 4.09924C13.747 4.09924 13.468 4.37903 13.468 4.72416C13.468 5.0693 13.747 5.34909 14.0911 5.34909Z" fill="#075BA3"/>
<path d="M14.0911 5.06243C14.0243 5.063 13.9588 5.04365 13.903 5.00683C13.8471 4.97 13.8034 4.91738 13.7775 4.85562C13.7515 4.79386 13.7444 4.72576 13.7571 4.65996C13.7698 4.59415 13.8017 4.53361 13.8487 4.48602C13.8958 4.43843 13.9559 4.40592 14.0214 4.39264C14.0869 4.37935 14.1549 4.38588 14.2166 4.4114C14.2784 4.43691 14.3313 4.48026 14.3685 4.53595C14.4057 4.59164 14.4255 4.65715 14.4255 4.72417C14.4255 4.81339 14.3904 4.899 14.3277 4.96235C14.2651 5.02571 14.1801 5.06168 14.0911 5.06243Z" fill="#075BA3"/>
<path d="M14.0911 7.22961C14.4352 7.22961 14.7142 6.94982 14.7142 6.60469C14.7142 6.25955 14.4352 5.97977 14.0911 5.97977C13.747 5.97977 13.468 6.25955 13.468 6.60469C13.468 6.94982 13.747 7.22961 14.0911 7.22961Z" fill="#075BA3"/>
<path d="M14.091 6.94006C14.0245 6.9406 13.9594 6.92144 13.9038 6.88499C13.8481 6.84853 13.8045 6.7964 13.7783 6.73515C13.7521 6.67389 13.7445 6.60624 13.7565 6.54068C13.7685 6.47513 13.7996 6.41459 13.8458 6.36668C13.892 6.31876 13.9513 6.2856 14.0162 6.27136C14.0811 6.25712 14.1488 6.26243 14.2107 6.28663C14.2726 6.31083 14.326 6.35284 14.3642 6.40738C14.4024 6.46192 14.4237 6.52657 14.4254 6.5932C14.4269 6.6382 14.4194 6.68305 14.4033 6.72507C14.3872 6.7671 14.3628 6.80544 14.3316 6.83781C14.3004 6.87018 14.263 6.89591 14.2217 6.91348C14.1803 6.93105 14.1359 6.94009 14.091 6.94006Z" fill="#075BA3"/>
<path d="M14.0911 9.10723C14.4352 9.10723 14.7142 8.82745 14.7142 8.48231C14.7142 8.13718 14.4352 7.85739 14.0911 7.85739C13.747 7.85739 13.468 8.13718 13.468 8.48231C13.468 8.82745 13.747 9.10723 14.0911 9.10723Z" fill="#075BA3"/>
<path d="M14.0911 8.82058C14.0243 8.82115 13.9588 8.8018 13.903 8.76497C13.8471 8.72815 13.8034 8.67552 13.7775 8.61377C13.7515 8.55201 13.7444 8.48391 13.7571 8.41811C13.7698 8.3523 13.8017 8.29176 13.8487 8.24417C13.8958 8.19657 13.9559 8.16407 14.0214 8.15079C14.0869 8.1375 14.1549 8.14403 14.2166 8.16955C14.2784 8.19506 14.3313 8.23841 14.3685 8.2941C14.4057 8.34979 14.4255 8.4153 14.4255 8.48232C14.4255 8.57154 14.3904 8.65715 14.3277 8.7205C14.2651 8.78385 14.1801 8.81983 14.0911 8.82058Z" fill="#075BA3"/>
<path d="M14.0911 10.9877C14.4352 10.9877 14.7142 10.7079 14.7142 10.3628C14.7142 10.0177 14.4352 9.73788 14.0911 9.73788C13.747 9.73788 13.468 10.0177 13.468 10.3628C13.468 10.7079 13.747 10.9877 14.0911 10.9877Z" fill="#075BA3"/>
<path d="M14.0911 10.7011C14.0243 10.7016 13.9588 10.6823 13.903 10.6455C13.8471 10.6086 13.8034 10.556 13.7775 10.4943C13.7515 10.4325 13.7444 10.3644 13.7571 10.2986C13.7698 10.2328 13.8017 10.1723 13.8487 10.1247C13.8958 10.0771 13.9559 10.0446 14.0214 10.0313C14.0869 10.018 14.1549 10.0245 14.2166 10.05C14.2784 10.0756 14.3313 10.1189 14.3685 10.1746C14.4057 10.2303 14.4255 10.2958 14.4255 10.3628C14.4255 10.452 14.3904 10.5376 14.3277 10.601C14.2651 10.6643 14.1801 10.7003 14.0911 10.7011Z" fill="#075BA3"/>
<path d="M14.0911 12.8654C14.4352 12.8654 14.7142 12.5856 14.7142 12.2404C14.7142 11.8953 14.4352 11.6155 14.0911 11.6155C13.747 11.6155 13.468 11.8953 13.468 12.2404C13.468 12.5856 13.747 12.8654 14.0911 12.8654Z" fill="#075BA3"/>
<path d="M14.0911 12.5787C14.0243 12.5793 13.9588 12.5599 13.903 12.5231C13.8471 12.4863 13.8034 12.4336 13.7775 12.3719C13.7515 12.3101 13.7444 12.242 13.7571 12.1762C13.7698 12.1104 13.8017 12.0499 13.8487 12.0023C13.8958 11.9547 13.9559 11.9222 14.0214 11.9089C14.0869 11.8956 14.1549 11.9021 14.2166 11.9277C14.2784 11.9532 14.3313 11.9965 14.3685 12.0522C14.4057 12.1079 14.4255 12.1734 14.4255 12.2404C14.4255 12.3297 14.3904 12.4153 14.3277 12.4786C14.2651 12.542 14.1801 12.5779 14.0911 12.5787Z" fill="#075BA3"/>
<path d="M14.0911 14.7458C14.4352 14.7458 14.7142 14.4661 14.7142 14.1209C14.7142 13.7758 14.4352 13.496 14.0911 13.496C13.747 13.496 13.468 13.7758 13.468 14.1209C13.468 14.4661 13.747 14.7458 14.0911 14.7458Z" fill="#075BA3"/>
<path d="M14.0911 14.4592C14.0243 14.4598 13.9588 14.4404 13.903 14.4036C13.8471 14.3668 13.8034 14.3141 13.7775 14.2524C13.7515 14.1906 13.7444 14.1225 13.7571 14.0567C13.7698 13.9909 13.8017 13.9304 13.8487 13.8828C13.8958 13.8352 13.9559 13.8027 14.0214 13.7894C14.0869 13.7761 14.1549 13.7826 14.2166 13.8082C14.2784 13.8337 14.3313 13.877 14.3685 13.9327C14.4057 13.9884 14.4255 14.0539 14.4255 14.1209C14.4255 14.2101 14.3904 14.2958 14.3277 14.3591C14.2651 14.4225 14.1801 14.4584 14.0911 14.4592Z" fill="#075BA3"/>
<path d="M14.0911 16.6264C14.4352 16.6264 14.7142 16.3466 14.7142 16.0014C14.7142 15.6563 14.4352 15.3765 14.0911 15.3765C13.747 15.3765 13.468 15.6563 13.468 16.0014C13.468 16.3466 13.747 16.6264 14.0911 16.6264Z" fill="#075BA3"/>
<path d="M14.0911 16.3397C14.0241 16.3403 13.9585 16.3208 13.9026 16.2839C13.8467 16.2469 13.8031 16.1941 13.7772 16.1322C13.7513 16.0703 13.7444 16.002 13.7573 15.9361C13.7702 15.8703 13.8024 15.8097 13.8498 15.7623C13.8971 15.7148 13.9575 15.6825 14.0231 15.6695C14.0888 15.6566 14.1569 15.6635 14.2186 15.6895C14.2804 15.7154 14.333 15.7592 14.3699 15.8153C14.4067 15.8714 14.4261 15.9372 14.4255 16.0043C14.4248 16.093 14.3893 16.1779 14.3267 16.2406C14.2642 16.3034 14.1796 16.3389 14.0911 16.3397Z" fill="#075BA3"/>
<path d="M14.0911 18.504C14.4352 18.504 14.7142 18.2242 14.7142 17.8791C14.7142 17.5339 14.4352 17.2542 14.0911 17.2542C13.747 17.2542 13.468 17.5339 13.468 17.8791C13.468 18.2242 13.747 18.504 14.0911 18.504Z" fill="#075BA3"/>
<path d="M14.0911 18.2173C14.0243 18.2179 13.9588 18.1986 13.903 18.1617C13.8471 18.1249 13.8034 18.0723 13.7775 18.0105C13.7515 17.9488 13.7444 17.8807 13.7571 17.8149C13.7698 17.7491 13.8017 17.6885 13.8487 17.6409C13.8958 17.5933 13.9559 17.5608 14.0214 17.5475C14.0869 17.5343 14.1549 17.5408 14.2166 17.5663C14.2784 17.5918 14.3313 17.6352 14.3685 17.6909C14.4057 17.7465 14.4255 17.8121 14.4255 17.8791C14.4255 17.9683 14.3904 18.0539 14.3277 18.1173C14.2651 18.1806 14.1801 18.2166 14.0911 18.2173Z" fill="#075BA3"/>
<path d="M12.2789 14.7458C12.623 14.7458 12.902 14.4661 12.902 14.1209C12.902 13.7758 12.623 13.496 12.2789 13.496C11.9347 13.496 11.6558 13.7758 11.6558 14.1209C11.6558 14.4661 11.9347 14.7458 12.2789 14.7458Z" fill="#075BA3"/>
<path d="M12.2904 14.4592C12.2237 14.4592 12.1585 14.4394 12.103 14.4022C12.0476 14.365 12.0043 14.3122 11.9788 14.2504C11.9533 14.1886 11.9466 14.1206 11.9596 14.055C11.9726 13.9893 12.0047 13.9291 12.0519 13.8818C12.0991 13.8345 12.1592 13.8022 12.2246 13.7892C12.29 13.7761 12.3578 13.7828 12.4195 13.8084C12.4811 13.834 12.5338 13.8774 12.5708 13.933C12.6079 13.9886 12.6277 14.054 12.6277 14.1209C12.628 14.1655 12.6196 14.2096 12.6028 14.2508C12.586 14.2921 12.5611 14.3295 12.5297 14.361C12.4983 14.3925 12.461 14.4174 12.4199 14.4342C12.3788 14.4511 12.3348 14.4596 12.2904 14.4592Z" fill="#075BA3"/>
<path d="M12.2789 16.6264C12.623 16.6264 12.902 16.3466 12.902 16.0014C12.902 15.6563 12.623 15.3765 12.2789 15.3765C11.9347 15.3765 11.6558 15.6563 11.6558 16.0014C11.6558 16.3466 11.9347 16.6264 12.2789 16.6264Z" fill="#075BA3"/>
<path d="M12.2904 16.3397C12.2236 16.3397 12.1582 16.3198 12.1027 16.2825C12.0472 16.2452 12.004 16.1922 11.9785 16.1302C11.9531 16.0682 11.9466 16.0001 11.9598 15.9344C11.9731 15.8687 12.0055 15.8084 12.0529 15.7612C12.1004 15.714 12.1607 15.6821 12.2264 15.6693C12.292 15.6566 12.3599 15.6637 12.4214 15.6898C12.483 15.7158 12.5355 15.7596 12.5722 15.8156C12.6089 15.8716 12.6282 15.9373 12.6277 16.0043C12.6277 16.0486 12.6189 16.0924 12.6019 16.1333C12.5849 16.1742 12.5601 16.2113 12.5287 16.2425C12.4973 16.2737 12.4601 16.2983 12.4192 16.315C12.3783 16.3317 12.3345 16.3401 12.2904 16.3397Z" fill="#075BA3"/>
<path d="M12.2789 18.504C12.623 18.504 12.902 18.2242 12.902 17.8791C12.902 17.5339 12.623 17.2542 12.2789 17.2542C11.9347 17.2542 11.6558 17.5339 11.6558 17.8791C11.6558 18.2242 11.9347 18.504 12.2789 18.504Z" fill="#075BA3"/>
<path d="M12.2904 18.2173C12.2237 18.2173 12.1585 18.1975 12.103 18.1603C12.0476 18.1231 12.0043 18.0703 11.9788 18.0085C11.9533 17.9467 11.9466 17.8787 11.9596 17.8131C11.9726 17.7475 12.0047 17.6872 12.0519 17.6399C12.0991 17.5926 12.1592 17.5604 12.2246 17.5473C12.29 17.5342 12.3578 17.5409 12.4195 17.5666C12.4811 17.5922 12.5338 17.6355 12.5708 17.6911C12.6079 17.7468 12.6277 17.8122 12.6277 17.8791C12.628 17.9236 12.6196 17.9677 12.6028 18.009C12.586 18.0502 12.5611 18.0876 12.5297 18.1191C12.4983 18.1506 12.461 18.1755 12.4199 18.1924C12.3788 18.2092 12.3348 18.2177 12.2904 18.2173Z" fill="#075BA3"/>
<path d="M10.3641 16.6264C10.7082 16.6264 10.9872 16.3466 10.9872 16.0014C10.9872 15.6563 10.7082 15.3765 10.3641 15.3765C10.0199 15.3765 9.74097 15.6563 9.74097 16.0014C9.74097 16.3466 10.0199 16.6264 10.3641 16.6264Z" fill="#075BA3"/>
<path d="M10.3639 16.3397C10.297 16.3397 10.2317 16.3198 10.1762 16.2825C10.1207 16.2452 10.0774 16.1922 10.052 16.1302C10.0266 16.0682 10.0201 16.0001 10.0333 15.9344C10.0466 15.8687 10.079 15.8084 10.1264 15.7612C10.1739 15.714 10.2342 15.6821 10.2998 15.6693C10.3655 15.6566 10.4334 15.6637 10.4949 15.6898C10.5565 15.7158 10.609 15.7596 10.6457 15.8156C10.6824 15.8716 10.7017 15.9373 10.7011 16.0043C10.7004 16.0935 10.6645 16.1788 10.6014 16.2416C10.5382 16.3045 10.4528 16.3397 10.3639 16.3397Z" fill="#075BA3"/>
<path d="M14.0911 20.3845C14.4352 20.3845 14.7142 20.1047 14.7142 19.7596C14.7142 19.4144 14.4352 19.1346 14.0911 19.1346C13.747 19.1346 13.468 19.4144 13.468 19.7596C13.468 20.1047 13.747 20.3845 14.0911 20.3845Z" fill="#075BA3"/>
<path d="M14.0911 20.095C14.0241 20.0955 13.9585 20.0761 13.9026 20.0392C13.8467 20.0022 13.8031 19.9494 13.7772 19.8875C13.7513 19.8256 13.7444 19.7573 13.7573 19.6914C13.7702 19.6255 13.8024 19.565 13.8498 19.5175C13.8971 19.4701 13.9575 19.4378 14.0231 19.4248C14.0888 19.4119 14.1569 19.4188 14.2186 19.4448C14.2804 19.4707 14.333 19.5145 14.3699 19.5706C14.4067 19.6266 14.4261 19.6924 14.4255 19.7596C14.4255 19.8485 14.3903 19.9338 14.3276 19.9967C14.2648 20.0596 14.1798 20.095 14.0911 20.095Z" fill="#075BA3"/>
<path d="M14.0911 22.2621C14.4352 22.2621 14.7142 21.9823 14.7142 21.6372C14.7142 21.2921 14.4352 21.0123 14.0911 21.0123C13.747 21.0123 13.468 21.2921 13.468 21.6372C13.468 21.9823 13.747 22.2621 14.0911 22.2621Z" fill="#075BA3"/>
<path d="M14.0911 21.9755C14.0243 21.976 13.9588 21.9567 13.903 21.9199C13.8471 21.883 13.8034 21.8304 13.7775 21.7686C13.7515 21.7069 13.7444 21.6388 13.7571 21.573C13.7698 21.5072 13.8017 21.4466 13.8487 21.399C13.8958 21.3515 13.9559 21.3189 14.0214 21.3057C14.0869 21.2924 14.1549 21.2989 14.2166 21.3244C14.2784 21.3499 14.3313 21.3933 14.3685 21.449C14.4057 21.5047 14.4255 21.5702 14.4255 21.6372C14.4255 21.7264 14.3904 21.812 14.3277 21.8754C14.2651 21.9387 14.1801 21.9747 14.0911 21.9755Z" fill="#075BA3"/>
<path d="M14.0911 24.1426C14.4352 24.1426 14.7142 23.8628 14.7142 23.5177C14.7142 23.1725 14.4352 22.8928 14.0911 22.8928C13.747 22.8928 13.468 23.1725 13.468 23.5177C13.468 23.8628 13.747 24.1426 14.0911 24.1426Z" fill="#075BA3"/>
<path d="M14.091 23.8531C14.0245 23.8536 13.9594 23.8345 13.9038 23.798C13.8481 23.7616 13.8045 23.7094 13.7783 23.6482C13.7521 23.5869 13.7445 23.5193 13.7565 23.4537C13.7685 23.3882 13.7996 23.3276 13.8458 23.2797C13.892 23.2318 13.9513 23.1986 14.0162 23.1844C14.0811 23.1701 14.1488 23.1755 14.2107 23.1997C14.2726 23.2239 14.326 23.2659 14.3642 23.3204C14.4024 23.3749 14.4237 23.4396 14.4254 23.5062C14.4269 23.5512 14.4194 23.5961 14.4033 23.6381C14.3872 23.6801 14.3628 23.7185 14.3316 23.7508C14.3004 23.7832 14.263 23.8089 14.2217 23.8265C14.1803 23.8441 14.1359 23.8531 14.091 23.8531Z" fill="#075BA3"/>
<path d="M14.0911 26.0203C14.4352 26.0203 14.7142 25.7405 14.7142 25.3953C14.7142 25.0502 14.4352 24.7704 14.0911 24.7704C13.747 24.7704 13.468 25.0502 13.468 25.3953C13.468 25.7405 13.747 26.0203 14.0911 26.0203Z" fill="#075BA3"/>
<path d="M14.0911 25.7336C14.0243 25.7341 13.9588 25.7148 13.903 25.678C13.8471 25.6411 13.8034 25.5885 13.7775 25.5268C13.7515 25.465 13.7444 25.3969 13.7571 25.3311C13.7698 25.2653 13.8017 25.2048 13.8487 25.1572C13.8958 25.1096 13.9559 25.0771 14.0214 25.0638C14.0869 25.0505 14.1549 25.057 14.2166 25.0825C14.2784 25.1081 14.3313 25.1514 14.3685 25.2071C14.4057 25.2628 14.4255 25.3283 14.4255 25.3953C14.4255 25.4845 14.3904 25.5701 14.3277 25.6335C14.2651 25.6968 14.1801 25.7328 14.0911 25.7336Z" fill="#075BA3"/>
<path d="M14.0911 27.9008C14.4352 27.9008 14.7142 27.621 14.7142 27.2758C14.7142 26.9307 14.4352 26.6509 14.0911 26.6509C13.747 26.6509 13.468 26.9307 13.468 27.2758C13.468 27.621 13.747 27.9008 14.0911 27.9008Z" fill="#075BA3"/>
<path d="M14.0911 27.6141C14.0243 27.6146 13.9588 27.5953 13.903 27.5585C13.8471 27.5216 13.8034 27.469 13.7775 27.4073C13.7515 27.3455 13.7444 27.2774 13.7571 27.2116C13.7698 27.1458 13.8017 27.0852 13.8487 27.0377C13.8958 26.9901 13.9559 26.9576 14.0214 26.9443C14.0869 26.931 14.1549 26.9375 14.2166 26.963C14.2784 26.9885 14.3313 27.0319 14.3685 27.0876C14.4057 27.1433 14.4255 27.2088 14.4255 27.2758C14.4255 27.365 14.3904 27.4506 14.3277 27.514C14.2651 27.5773 14.1801 27.6133 14.0911 27.6141Z" fill="#075BA3"/>
<path d="M14.0911 29.7784C14.4352 29.7784 14.7142 29.4986 14.7142 29.1535C14.7142 28.8083 14.4352 28.5285 14.0911 28.5285C13.747 28.5285 13.468 28.8083 13.468 29.1535C13.468 29.4986 13.747 29.7784 14.0911 29.7784Z" fill="#075BA3"/>
<path d="M14.0911 29.4917C14.0241 29.4923 13.9585 29.4729 13.9026 29.4359C13.8467 29.399 13.8031 29.3462 13.7772 29.2842C13.7513 29.2223 13.7444 29.1541 13.7573 29.0882C13.7702 29.0223 13.8024 28.9618 13.8498 28.9143C13.8971 28.8668 13.9575 28.8345 14.0231 28.8216C14.0888 28.8086 14.1569 28.8156 14.2186 28.8415C14.2804 28.8675 14.333 28.9113 14.3699 28.9673C14.4067 29.0234 14.4261 29.0892 14.4255 29.1563C14.4248 29.2451 14.3893 29.3299 14.3267 29.3927C14.2642 29.4554 14.1796 29.491 14.0911 29.4917Z" fill="#075BA3"/>
<path d="M15.9803 7.22961C16.3244 7.22961 16.6034 6.94982 16.6034 6.60469C16.6034 6.25955 16.3244 5.97977 15.9803 5.97977C15.6361 5.97977 15.3572 6.25955 15.3572 6.60469C15.3572 6.94982 15.6361 7.22961 15.9803 7.22961Z" fill="#075BA3"/>
<path d="M15.9805 6.94007C15.9141 6.94005 15.8493 6.92041 15.794 6.88361C15.7388 6.8468 15.6955 6.79447 15.6698 6.73317C15.644 6.67186 15.6369 6.60429 15.6492 6.53892C15.6615 6.47355 15.6928 6.41328 15.7391 6.36564C15.7854 6.31801 15.8447 6.28514 15.9096 6.27113C15.9744 6.25712 16.042 6.26261 16.1037 6.2869C16.1655 6.31119 16.2187 6.3532 16.2568 6.40768C16.2949 6.46217 16.3161 6.5267 16.3177 6.59321C16.3193 6.63845 16.3117 6.68354 16.2954 6.72576C16.2791 6.76797 16.2545 6.80645 16.2229 6.83885C16.1914 6.87126 16.1537 6.89694 16.112 6.91433C16.0704 6.93173 16.0256 6.94048 15.9805 6.94007Z" fill="#075BA3"/>
<path d="M15.9803 9.10723C16.3244 9.10723 16.6034 8.82745 16.6034 8.48231C16.6034 8.13718 16.3244 7.85739 15.9803 7.85739C15.6361 7.85739 15.3572 8.13718 15.3572 8.48231C15.3572 8.82745 15.6361 9.10723 15.9803 9.10723Z" fill="#075BA3"/>
<path d="M15.9803 8.82056C15.9136 8.82056 15.8484 8.80073 15.793 8.76356C15.7375 8.72639 15.6943 8.67356 15.6687 8.61175C15.6432 8.54994 15.6365 8.48193 15.6495 8.41631C15.6626 8.3507 15.6947 8.29042 15.7419 8.24312C15.789 8.19581 15.8491 8.16359 15.9145 8.15054C15.98 8.13749 16.0478 8.14419 16.1094 8.16979C16.171 8.19539 16.2237 8.23875 16.2608 8.29438C16.2978 8.35 16.3176 8.4154 16.3176 8.4823C16.3176 8.57202 16.2821 8.65805 16.2188 8.72149C16.1556 8.78493 16.0698 8.82056 15.9803 8.82056Z" fill="#075BA3"/>
<path d="M15.9803 10.9877C16.3244 10.9877 16.6034 10.7079 16.6034 10.3628C16.6034 10.0177 16.3244 9.73788 15.9803 9.73788C15.6361 9.73788 15.3572 10.0177 15.3572 10.3628C15.3572 10.7079 15.6361 10.9877 15.9803 10.9877Z" fill="#075BA3"/>
<path d="M15.9803 10.7011C15.9136 10.7011 15.8484 10.6812 15.793 10.6441C15.7375 10.6069 15.6943 10.5541 15.6687 10.4922C15.6432 10.4304 15.6365 10.3624 15.6495 10.2968C15.6626 10.2312 15.6947 10.1709 15.7419 10.1236C15.789 10.0763 15.8491 10.0441 15.9145 10.031C15.98 10.018 16.0478 10.0247 16.1094 10.0503C16.171 10.0759 16.2237 10.1192 16.2608 10.1749C16.2978 10.2305 16.3176 10.2959 16.3176 10.3628C16.3176 10.4525 16.2821 10.5385 16.2188 10.602C16.1556 10.6654 16.0698 10.7011 15.9803 10.7011Z" fill="#075BA3"/>
<path d="M15.9803 12.8654C16.3244 12.8654 16.6034 12.5856 16.6034 12.2404C16.6034 11.8953 16.3244 11.6155 15.9803 11.6155C15.6361 11.6155 15.3572 11.8953 15.3572 12.2404C15.3572 12.5856 15.6361 12.8654 15.9803 12.8654Z" fill="#075BA3"/>
<path d="M15.9803 12.5787C15.9136 12.5787 15.8484 12.5589 15.793 12.5217C15.7375 12.4845 15.6943 12.4317 15.6687 12.3699C15.6432 12.3081 15.6365 12.2401 15.6495 12.1745C15.6626 12.1088 15.6947 12.0486 15.7419 12.0013C15.789 11.954 15.8491 11.9217 15.9145 11.9087C15.98 11.8956 16.0478 11.9023 16.1094 11.9279C16.171 11.9535 16.2237 11.9969 16.2608 12.0525C16.2978 12.1082 16.3176 12.1736 16.3176 12.2405C16.3176 12.3302 16.2821 12.4162 16.2188 12.4796C16.1556 12.5431 16.0698 12.5787 15.9803 12.5787Z" fill="#075BA3"/>
<path d="M15.9803 14.7458C16.3244 14.7458 16.6034 14.4661 16.6034 14.1209C16.6034 13.7758 16.3244 13.496 15.9803 13.496C15.6361 13.496 15.3572 13.7758 15.3572 14.1209C15.3572 14.4661 15.6361 14.7458 15.9803 14.7458Z" fill="#075BA3"/>
<path d="M15.9803 14.4592C15.9136 14.4592 15.8484 14.4394 15.793 14.4022C15.7375 14.365 15.6943 14.3122 15.6687 14.2504C15.6432 14.1886 15.6365 14.1206 15.6495 14.055C15.6626 13.9893 15.6947 13.9291 15.7419 13.8818C15.789 13.8345 15.8491 13.8022 15.9145 13.7892C15.98 13.7761 16.0478 13.7828 16.1094 13.8084C16.171 13.834 16.2237 13.8774 16.2608 13.933C16.2978 13.9886 16.3176 14.054 16.3176 14.1209C16.3176 14.2107 16.2821 14.2967 16.2188 14.3601C16.1556 14.4236 16.0698 14.4592 15.9803 14.4592Z" fill="#075BA3"/>
<path d="M15.9803 18.504C16.3244 18.504 16.6034 18.2242 16.6034 17.8791C16.6034 17.5339 16.3244 17.2542 15.9803 17.2542C15.6361 17.2542 15.3572 17.5339 15.3572 17.8791C15.3572 18.2242 15.6361 18.504 15.9803 18.504Z" fill="#075BA3"/>
<path d="M15.9803 18.2173C15.9136 18.2173 15.8484 18.1975 15.793 18.1603C15.7375 18.1231 15.6943 18.0703 15.6687 18.0085C15.6432 17.9467 15.6365 17.8787 15.6495 17.8131C15.6626 17.7475 15.6947 17.6872 15.7419 17.6399C15.789 17.5926 15.8491 17.5604 15.9145 17.5473C15.98 17.5342 16.0478 17.5409 16.1094 17.5666C16.171 17.5922 16.2237 17.6355 16.2608 17.6911C16.2978 17.7468 16.3176 17.8122 16.3176 17.8791C16.3176 17.9688 16.2821 18.0548 16.2188 18.1182C16.1556 18.1817 16.0698 18.2173 15.9803 18.2173Z" fill="#075BA3"/>
<path d="M15.9803 20.3845C16.3244 20.3845 16.6034 20.1047 16.6034 19.7596C16.6034 19.4144 16.3244 19.1346 15.9803 19.1346C15.6361 19.1346 15.3572 19.4144 15.3572 19.7596C15.3572 20.1047 15.6361 20.3845 15.9803 20.3845Z" fill="#075BA3"/>
<path d="M15.9803 20.0949C15.9135 20.0949 15.8482 20.075 15.7927 20.0377C15.7371 20.0004 15.6939 19.9474 15.6685 19.8855C15.643 19.8235 15.6365 19.7553 15.6498 19.6896C15.663 19.6239 15.6954 19.5637 15.7429 19.5165C15.7903 19.4693 15.8507 19.4373 15.9163 19.4246C15.9819 19.4119 16.0498 19.419 16.1114 19.445C16.173 19.471 16.2254 19.5149 16.2622 19.5709C16.2989 19.6269 16.3182 19.6925 16.3176 19.7596C16.3176 19.8038 16.3089 19.8477 16.2919 19.8886C16.2749 19.9294 16.25 19.9666 16.2186 19.9977C16.1873 20.0289 16.1501 20.0536 16.1092 20.0702C16.0683 20.0869 16.0245 20.0953 15.9803 20.0949Z" fill="#075BA3"/>
<path d="M15.9803 22.2621C16.3244 22.2621 16.6034 21.9823 16.6034 21.6372C16.6034 21.2921 16.3244 21.0123 15.9803 21.0123C15.6361 21.0123 15.3572 21.2921 15.3572 21.6372C15.3572 21.9823 15.6361 22.2621 15.9803 22.2621Z" fill="#075BA3"/>
<path d="M15.9803 21.9754C15.9136 21.9754 15.8484 21.9556 15.793 21.9184C15.7375 21.8813 15.6943 21.8284 15.6687 21.7666C15.6432 21.7048 15.6365 21.6368 15.6495 21.5712C15.6626 21.5056 15.6947 21.4453 15.7419 21.398C15.789 21.3507 15.8491 21.3185 15.9145 21.3054C15.98 21.2924 16.0478 21.2991 16.1094 21.3247C16.171 21.3503 16.2237 21.3936 16.2608 21.4493C16.2978 21.5049 16.3176 21.5703 16.3176 21.6372C16.3176 21.7269 16.2821 21.8129 16.2188 21.8764C16.1556 21.9398 16.0698 21.9754 15.9803 21.9754Z" fill="#075BA3"/>
<path d="M15.9803 24.1426C16.3244 24.1426 16.6034 23.8628 16.6034 23.5177C16.6034 23.1725 16.3244 22.8928 15.9803 22.8928C15.6361 22.8928 15.3572 23.1725 15.3572 23.5177C15.3572 23.8628 15.6361 24.1426 15.9803 24.1426Z" fill="#075BA3"/>
<path d="M15.9805 23.8531C15.9141 23.8531 15.8493 23.8334 15.794 23.7966C15.7388 23.7598 15.6955 23.7075 15.6698 23.6462C15.644 23.5849 15.6369 23.5173 15.6492 23.4519C15.6615 23.3866 15.6928 23.3263 15.7391 23.2787C15.7854 23.231 15.8447 23.1982 15.9096 23.1842C15.9744 23.1701 16.042 23.1756 16.1037 23.1999C16.1655 23.2242 16.2187 23.2662 16.2568 23.3207C16.2949 23.3752 16.3161 23.4397 16.3177 23.5062C16.3193 23.5515 16.3117 23.5966 16.2954 23.6388C16.2791 23.681 16.2545 23.7195 16.2229 23.7519C16.1914 23.7843 16.1537 23.81 16.112 23.8274C16.0704 23.8448 16.0256 23.8535 15.9805 23.8531Z" fill="#075BA3"/>
<path d="M15.9803 26.0203C16.3244 26.0203 16.6034 25.7405 16.6034 25.3953C16.6034 25.0502 16.3244 24.7704 15.9803 24.7704C15.6361 24.7704 15.3572 25.0502 15.3572 25.3953C15.3572 25.7405 15.6361 26.0203 15.9803 26.0203Z" fill="#075BA3"/>
<path d="M15.9803 25.7336C15.9136 25.7336 15.8484 25.7138 15.793 25.6766C15.7375 25.6394 15.6943 25.5866 15.6687 25.5248C15.6432 25.463 15.6365 25.395 15.6495 25.3293C15.6626 25.2637 15.6947 25.2034 15.7419 25.1561C15.789 25.1088 15.8491 25.0766 15.9145 25.0636C15.98 25.0505 16.0478 25.0572 16.1094 25.0828C16.171 25.1084 16.2237 25.1518 16.2608 25.2074C16.2978 25.263 16.3176 25.3284 16.3176 25.3953C16.3176 25.485 16.2821 25.5711 16.2188 25.6345C16.1556 25.698 16.0698 25.7336 15.9803 25.7336Z" fill="#075BA3"/>
<path d="M15.9803 27.9008C16.3244 27.9008 16.6034 27.621 16.6034 27.2758C16.6034 26.9307 16.3244 26.6509 15.9803 26.6509C15.6361 26.6509 15.3572 26.9307 15.3572 27.2758C15.3572 27.621 15.6361 27.9008 15.9803 27.9008Z" fill="#075BA3"/>
<path d="M15.9803 27.6141C15.9136 27.6141 15.8484 27.5942 15.793 27.5571C15.7375 27.5199 15.6943 27.4671 15.6687 27.4053C15.6432 27.3435 15.6365 27.2754 15.6495 27.2098C15.6626 27.1442 15.6947 27.0839 15.7419 27.0366C15.789 26.9893 15.8491 26.9571 15.9145 26.9441C15.98 26.931 16.0478 26.9377 16.1094 26.9633C16.171 26.9889 16.2237 27.0323 16.2608 27.0879C16.2978 27.1435 16.3176 27.2089 16.3176 27.2758C16.3176 27.3655 16.2821 27.4516 16.2188 27.515C16.1556 27.5784 16.0698 27.6141 15.9803 27.6141Z" fill="#075BA3"/>
<path d="M15.9803 29.7784C16.3244 29.7784 16.6034 29.4986 16.6034 29.1535C16.6034 28.8083 16.3244 28.5285 15.9803 28.5285C15.6361 28.5285 15.3572 28.8083 15.3572 29.1535C15.3572 29.4986 15.6361 29.7784 15.9803 29.7784Z" fill="#075BA3"/>
<path d="M15.9803 29.4917C15.9135 29.4917 15.8482 29.4718 15.7927 29.4345C15.7371 29.3972 15.6939 29.3442 15.6685 29.2822C15.643 29.2202 15.6365 29.1521 15.6498 29.0864C15.663 29.0207 15.6954 28.9604 15.7429 28.9132C15.7903 28.8661 15.8507 28.8341 15.9163 28.8213C15.9819 28.8086 16.0498 28.8157 16.1114 28.8418C16.173 28.8678 16.2254 28.9116 16.2622 28.9676C16.2989 29.0236 16.3182 29.0893 16.3176 29.1563C16.3168 29.2455 16.281 29.3308 16.2178 29.3936C16.1546 29.4565 16.0693 29.4917 15.9803 29.4917Z" fill="#075BA3"/>
<path d="M17.844 7.22961C18.1882 7.22961 18.4671 6.94982 18.4671 6.60469C18.4671 6.25955 18.1882 5.97977 17.844 5.97977C17.4999 5.97977 17.2209 6.25955 17.2209 6.60469C17.2209 6.94982 17.4999 7.22961 17.844 7.22961Z" fill="#075BA3"/>
<path d="M17.8439 6.94006C17.7775 6.9406 17.7123 6.92144 17.6567 6.88499C17.6011 6.84853 17.5574 6.7964 17.5312 6.73515C17.505 6.67389 17.4974 6.60624 17.5095 6.54068C17.5215 6.47513 17.5525 6.41459 17.5987 6.36668C17.6449 6.31876 17.7042 6.2856 17.7691 6.27136C17.834 6.25712 17.9017 6.26243 17.9636 6.28663C18.0256 6.31083 18.079 6.35284 18.1172 6.40738C18.1554 6.46192 18.1766 6.52657 18.1783 6.5932C18.1799 6.6382 18.1724 6.68305 18.1562 6.72507C18.1401 6.7671 18.1157 6.80544 18.0845 6.83781C18.0533 6.87018 18.0159 6.89591 17.9746 6.91348C17.9333 6.93105 17.8888 6.94009 17.8439 6.94006Z" fill="#075BA3"/>
<path d="M17.844 9.10723C18.1882 9.10723 18.4671 8.82745 18.4671 8.48231C18.4671 8.13718 18.1882 7.85739 17.844 7.85739C17.4999 7.85739 17.2209 8.13718 17.2209 8.48231C17.2209 8.82745 17.4999 9.10723 17.844 9.10723Z" fill="#075BA3"/>
<path d="M17.844 8.82058C17.7772 8.82115 17.7117 8.8018 17.6559 8.76497C17.6 8.72815 17.5564 8.67552 17.5304 8.61377C17.5044 8.55201 17.4974 8.48391 17.51 8.41811C17.5227 8.3523 17.5546 8.29176 17.6017 8.24417C17.6487 8.19657 17.7088 8.16407 17.7743 8.15079C17.8398 8.1375 17.9078 8.14403 17.9696 8.16955C18.0314 8.19506 18.0842 8.23841 18.1214 8.2941C18.1586 8.34979 18.1784 8.4153 18.1784 8.48232C18.1785 8.57154 18.1433 8.65715 18.0807 8.7205C18.018 8.78385 17.933 8.81983 17.844 8.82058Z" fill="#075BA3"/>
<path d="M17.844 10.9877C18.1882 10.9877 18.4671 10.7079 18.4671 10.3628C18.4671 10.0177 18.1882 9.73788 17.844 9.73788C17.4999 9.73788 17.2209 10.0177 17.2209 10.3628C17.2209 10.7079 17.4999 10.9877 17.844 10.9877Z" fill="#075BA3"/>
<path d="M17.844 10.7011C17.7772 10.7016 17.7117 10.6823 17.6559 10.6455C17.6 10.6086 17.5564 10.556 17.5304 10.4943C17.5044 10.4325 17.4974 10.3644 17.51 10.2986C17.5227 10.2328 17.5546 10.1723 17.6017 10.1247C17.6487 10.0771 17.7088 10.0446 17.7743 10.0313C17.8398 10.018 17.9078 10.0245 17.9696 10.05C18.0314 10.0756 18.0842 10.1189 18.1214 10.1746C18.1586 10.2303 18.1784 10.2958 18.1784 10.3628C18.1785 10.452 18.1433 10.5376 18.0807 10.601C18.018 10.6643 17.933 10.7003 17.844 10.7011Z" fill="#075BA3"/>
<path d="M17.844 12.8654C18.1882 12.8654 18.4671 12.5856 18.4671 12.2404C18.4671 11.8953 18.1882 11.6155 17.844 11.6155C17.4999 11.6155 17.2209 11.8953 17.2209 12.2404C17.2209 12.5856 17.4999 12.8654 17.844 12.8654Z" fill="#075BA3"/>
<path d="M17.844 12.5787C17.7772 12.5793 17.7117 12.5599 17.6559 12.5231C17.6 12.4863 17.5564 12.4336 17.5304 12.3719C17.5044 12.3101 17.4974 12.242 17.51 12.1762C17.5227 12.1104 17.5546 12.0499 17.6017 12.0023C17.6487 11.9547 17.7088 11.9222 17.7743 11.9089C17.8398 11.8956 17.9078 11.9021 17.9696 11.9277C18.0314 11.9532 18.0842 11.9965 18.1214 12.0522C18.1586 12.1079 18.1784 12.1734 18.1784 12.2404C18.1785 12.3297 18.1433 12.4153 18.0807 12.4786C18.018 12.542 17.933 12.5779 17.844 12.5787Z" fill="#075BA3"/>
<path d="M17.844 20.3845C18.1882 20.3845 18.4671 20.1047 18.4671 19.7596C18.4671 19.4144 18.1882 19.1346 17.844 19.1346C17.4999 19.1346 17.2209 19.4144 17.2209 19.7596C17.2209 20.1047 17.4999 20.3845 17.844 20.3845Z" fill="#075BA3"/>
<path d="M17.844 20.095C17.7771 20.0955 17.7115 20.0761 17.6556 20.0392C17.5997 20.0022 17.556 19.9494 17.5301 19.8875C17.5042 19.8256 17.4973 19.7573 17.5102 19.6914C17.5232 19.6255 17.5554 19.565 17.6027 19.5175C17.65 19.4701 17.7104 19.4378 17.7761 19.4248C17.8418 19.4119 17.9098 19.4188 17.9716 19.4448C18.0333 19.4707 18.0859 19.5145 18.1228 19.5706C18.1596 19.6266 18.179 19.6924 18.1784 19.7596C18.1784 19.8485 18.1432 19.9338 18.0805 19.9967C18.0178 20.0596 17.9327 20.095 17.844 20.095Z" fill="#075BA3"/>
<path d="M17.844 22.2621C18.1882 22.2621 18.4671 21.9823 18.4671 21.6372C18.4671 21.2921 18.1882 21.0123 17.844 21.0123C17.4999 21.0123 17.2209 21.2921 17.2209 21.6372C17.2209 21.9823 17.4999 22.2621 17.844 22.2621Z" fill="#075BA3"/>
<path d="M17.8439 21.9754C17.7972 21.9798 17.7501 21.9743 17.7056 21.9593C17.6611 21.9444 17.6203 21.9203 17.5856 21.8886C17.5509 21.8569 17.5233 21.8183 17.5043 21.7752C17.4854 21.7322 17.4756 21.6857 17.4756 21.6386C17.4756 21.5916 17.4854 21.545 17.5043 21.502C17.5233 21.459 17.5509 21.4204 17.5856 21.3887C17.6203 21.357 17.6611 21.3329 17.7056 21.3179C17.7501 21.303 17.7972 21.2975 17.8439 21.3018C17.9276 21.3095 18.0054 21.3484 18.0621 21.4107C18.1187 21.473 18.1501 21.5543 18.1501 21.6386C18.1501 21.7229 18.1187 21.8042 18.0621 21.8665C18.0054 21.9288 17.9276 21.9677 17.8439 21.9754Z" fill="#075BA3"/>
<path d="M17.844 24.1426C18.1882 24.1426 18.4671 23.8628 18.4671 23.5177C18.4671 23.1725 18.1882 22.8928 17.844 22.8928C17.4999 22.8928 17.2209 23.1725 17.2209 23.5177C17.2209 23.8628 17.4999 24.1426 17.844 24.1426Z" fill="#075BA3"/>
<path d="M17.8439 23.8531C17.7775 23.8536 17.7123 23.8345 17.6567 23.798C17.6011 23.7616 17.5574 23.7094 17.5312 23.6482C17.505 23.5869 17.4974 23.5193 17.5095 23.4537C17.5215 23.3882 17.5525 23.3276 17.5987 23.2797C17.6449 23.2318 17.7042 23.1986 17.7691 23.1844C17.834 23.1701 17.9017 23.1755 17.9636 23.1997C18.0256 23.2239 18.079 23.2659 18.1172 23.3204C18.1554 23.3749 18.1766 23.4396 18.1783 23.5062C18.1799 23.5512 18.1724 23.5961 18.1562 23.6381C18.1401 23.6801 18.1157 23.7185 18.0845 23.7508C18.0533 23.7832 18.0159 23.8089 17.9746 23.8265C17.9333 23.8441 17.8888 23.8531 17.8439 23.8531Z" fill="#075BA3"/>
<path d="M17.844 26.0203C18.1882 26.0203 18.4671 25.7405 18.4671 25.3953C18.4671 25.0502 18.1882 24.7704 17.844 24.7704C17.4999 24.7704 17.2209 25.0502 17.2209 25.3953C17.2209 25.7405 17.4999 26.0203 17.844 26.0203Z" fill="#075BA3"/>
<path d="M17.844 25.7336C17.7772 25.7341 17.7117 25.7148 17.6559 25.678C17.6 25.6411 17.5564 25.5885 17.5304 25.5268C17.5044 25.465 17.4974 25.3969 17.51 25.3311C17.5227 25.2653 17.5546 25.2048 17.6017 25.1572C17.6487 25.1096 17.7088 25.0771 17.7743 25.0638C17.8398 25.0505 17.9078 25.057 17.9696 25.0825C18.0314 25.1081 18.0842 25.1514 18.1214 25.2071C18.1586 25.2628 18.1784 25.3283 18.1784 25.3953C18.1785 25.4845 18.1433 25.5701 18.0807 25.6335C18.018 25.6968 17.933 25.7328 17.844 25.7336Z" fill="#075BA3"/>
<path d="M17.844 27.9008C18.1882 27.9008 18.4671 27.621 18.4671 27.2758C18.4671 26.9307 18.1882 26.6509 17.844 26.6509C17.4999 26.6509 17.2209 26.9307 17.2209 27.2758C17.2209 27.621 17.4999 27.9008 17.844 27.9008Z" fill="#075BA3"/>
<path d="M17.844 27.6141C17.7772 27.6146 17.7117 27.5953 17.6559 27.5585C17.6 27.5216 17.5564 27.469 17.5304 27.4073C17.5044 27.3455 17.4974 27.2774 17.51 27.2116C17.5227 27.1458 17.5546 27.0852 17.6017 27.0377C17.6487 26.9901 17.7088 26.9576 17.7743 26.9443C17.8398 26.931 17.9078 26.9375 17.9696 26.963C18.0314 26.9885 18.0842 27.0319 18.1214 27.0876C18.1586 27.1433 18.1784 27.2088 18.1784 27.2758C18.1785 27.365 18.1433 27.4506 18.0807 27.514C18.018 27.5773 17.933 27.6133 17.844 27.6141Z" fill="#075BA3"/>
<path d="M17.844 29.7784C18.1882 29.7784 18.4671 29.4986 18.4671 29.1535C18.4671 28.8083 18.1882 28.5285 17.844 28.5285C17.4999 28.5285 17.2209 28.8083 17.2209 29.1535C17.2209 29.4986 17.4999 29.7784 17.844 29.7784Z" fill="#075BA3"/>
<path d="M17.844 29.4917C17.7771 29.4923 17.7115 29.4729 17.6556 29.4359C17.5997 29.399 17.556 29.3462 17.5301 29.2842C17.5042 29.2223 17.4973 29.1541 17.5102 29.0882C17.5232 29.0223 17.5554 28.9618 17.6027 28.9143C17.65 28.8668 17.7104 28.8345 17.7761 28.8216C17.8418 28.8086 17.9098 28.8156 17.9716 28.8415C18.0333 28.8675 18.0859 28.9113 18.1228 28.9673C18.1596 29.0234 18.179 29.0892 18.1784 29.1563C18.1777 29.2451 18.1422 29.3299 18.0797 29.3927C18.0171 29.4554 17.9325 29.491 17.844 29.4917Z" fill="#075BA3"/>
<path d="M15.9803 31.6589C16.3244 31.6589 16.6034 31.3791 16.6034 31.0339C16.6034 30.6888 16.3244 30.409 15.9803 30.409C15.6361 30.409 15.3572 30.6888 15.3572 31.0339C15.3572 31.3791 15.6361 31.6589 15.9803 31.6589Z" fill="#075BA3"/>
<path d="M15.9803 31.3722C15.9136 31.3722 15.8484 31.3524 15.793 31.3152C15.7375 31.278 15.6943 31.2252 15.6687 31.1634C15.6432 31.1016 15.6365 31.0336 15.6495 30.9679C15.6626 30.9023 15.6947 30.8421 15.7419 30.7948C15.789 30.7474 15.8491 30.7152 15.9145 30.7022C15.98 30.6891 16.0478 30.6958 16.1094 30.7214C16.171 30.747 16.2237 30.7904 16.2608 30.846C16.2978 30.9016 16.3176 30.967 16.3176 31.0339C16.3176 31.0784 16.3089 31.1223 16.2919 31.1634C16.275 31.2044 16.2501 31.2417 16.2188 31.2731C16.1875 31.3045 16.1503 31.3295 16.1094 31.3465C16.0685 31.3635 16.0246 31.3722 15.9803 31.3722Z" fill="#075BA3"/>
<path d="M17.844 31.6589C18.1882 31.6589 18.4671 31.3791 18.4671 31.0339C18.4671 30.6888 18.1882 30.409 17.844 30.409C17.4999 30.409 17.2209 30.6888 17.2209 31.0339C17.2209 31.3791 17.4999 31.6589 17.844 31.6589Z" fill="#075BA3"/>
<path d="M17.844 31.3722C17.7772 31.3728 17.7117 31.3534 17.6559 31.3166C17.6 31.2798 17.5564 31.2272 17.5304 31.1654C17.5044 31.1036 17.4974 31.0355 17.51 30.9697C17.5227 30.9039 17.5546 30.8434 17.6017 30.7958C17.6487 30.7482 17.7088 30.7157 17.7743 30.7024C17.8398 30.6891 17.9078 30.6957 17.9696 30.7212C18.0314 30.7467 18.0842 30.79 18.1214 30.8457C18.1586 30.9014 18.1784 30.9669 18.1784 31.034C18.1785 31.1232 18.1433 31.2088 18.0807 31.2721C18.018 31.3355 17.933 31.3715 17.844 31.3722Z" fill="#075BA3"/>
<path d="M19.719 29.7784C20.0632 29.7784 20.3421 29.4986 20.3421 29.1535C20.3421 28.8083 20.0632 28.5285 19.719 28.5285C19.3749 28.5285 19.0959 28.8083 19.0959 29.1535C19.0959 29.4986 19.3749 29.7784 19.719 29.7784Z" fill="#075BA3"/>
<path d="M19.7218 29.4917C19.655 29.4917 19.5896 29.4718 19.5341 29.4345C19.4786 29.3972 19.4354 29.3442 19.4099 29.2822C19.3845 29.2202 19.378 29.1521 19.3912 29.0864C19.4045 29.0207 19.4369 28.9604 19.4843 28.9132C19.5318 28.8661 19.5921 28.8341 19.6578 28.8213C19.7234 28.8086 19.7913 28.8157 19.8528 28.8418C19.9144 28.8678 19.9669 28.9116 20.0036 28.9676C20.0403 29.0236 20.0596 29.0893 20.0591 29.1563C20.0583 29.2455 20.0224 29.3308 19.9593 29.3936C19.8961 29.4565 19.8107 29.4917 19.7218 29.4917Z" fill="#075BA3"/>
<path d="M19.719 31.6589C20.0632 31.6589 20.3421 31.3791 20.3421 31.0339C20.3421 30.6888 20.0632 30.409 19.719 30.409C19.3749 30.409 19.0959 30.6888 19.0959 31.0339C19.0959 31.3791 19.3749 31.6589 19.719 31.6589Z" fill="#075BA3"/>
<path d="M19.7218 31.3722C19.6551 31.3722 19.5899 31.3524 19.5344 31.3152C19.479 31.278 19.4357 31.2252 19.4102 31.1634C19.3847 31.1016 19.378 31.0336 19.391 30.9679C19.404 30.9023 19.4361 30.8421 19.4833 30.7948C19.5305 30.7474 19.5906 30.7152 19.656 30.7022C19.7214 30.6891 19.7892 30.6958 19.8509 30.7214C19.9125 30.747 19.9652 30.7904 20.0022 30.846C20.0393 30.9016 20.0591 30.967 20.0591 31.0339C20.0591 31.0784 20.0503 31.1223 20.0334 31.1634C20.0164 31.2044 19.9916 31.2417 19.9603 31.2731C19.929 31.3045 19.8918 31.3295 19.8509 31.3465C19.8099 31.3635 19.7661 31.3722 19.7218 31.3722Z" fill="#075BA3"/>
<path d="M14.0911 3.47146C14.4352 3.47146 14.7142 3.19168 14.7142 2.84654C14.7142 2.50141 14.4352 2.22162 14.0911 2.22162C13.747 2.22162 13.468 2.50141 13.468 2.84654C13.468 3.19168 13.747 3.47146 14.0911 3.47146Z" fill="#075BA3"/>
<path d="M14.0911 3.18194C14.0241 3.18251 13.9585 3.16308 13.9026 3.12613C13.8467 3.08918 13.8031 3.03638 13.7772 2.97446C13.7513 2.91253 13.7444 2.84428 13.7573 2.7784C13.7702 2.71252 13.8024 2.65199 13.8498 2.60451C13.8971 2.55703 13.9575 2.52475 14.0231 2.51179C14.0888 2.49883 14.1569 2.50577 14.2186 2.53173C14.2804 2.55769 14.333 2.60149 14.3699 2.65755C14.4067 2.71361 14.4261 2.77941 14.4255 2.84655C14.4255 2.9355 14.3903 3.02081 14.3276 3.08371C14.2648 3.1466 14.1798 3.18194 14.0911 3.18194Z" fill="#075BA3"/>
<path d="M9.69226 1.3043C9.64555 1.30862 9.59846 1.30313 9.55399 1.28817C9.50952 1.27321 9.46865 1.24911 9.43399 1.21741C9.39933 1.18572 9.37164 1.14711 9.3527 1.10408C9.33376 1.06104 9.32397 1.01452 9.32397 0.967472C9.32397 0.920428 9.33376 0.873902 9.3527 0.830865C9.37164 0.787829 9.39933 0.749228 9.43399 0.71753C9.46865 0.685831 9.50952 0.661732 9.55399 0.646772C9.59846 0.631811 9.64555 0.626319 9.69226 0.630645C9.77599 0.638399 9.8538 0.677239 9.91046 0.739549C9.96711 0.801858 9.99852 0.883145 9.99852 0.967472C9.99852 1.0518 9.96711 1.13309 9.91046 1.19539C9.8538 1.2577 9.77599 1.29654 9.69226 1.3043Z" fill="#075BA3"/>
<path d="M7.81432 1.3043C7.74762 1.3043 7.68241 1.28446 7.62694 1.24729C7.57148 1.21012 7.52825 1.15729 7.50272 1.09548C7.4772 1.03368 7.47052 0.965662 7.48353 0.900046C7.49655 0.83443 7.52867 0.774158 7.57584 0.726851C7.623 0.679545 7.6831 0.647329 7.74852 0.634277C7.81395 0.621225 7.88176 0.627924 7.94339 0.653526C8.00502 0.679128 8.05769 0.722484 8.09475 0.77811C8.13181 0.833737 8.15159 0.899136 8.15159 0.966038C8.15198 1.01056 8.14351 1.05472 8.1267 1.09594C8.10988 1.13715 8.08505 1.17459 8.05366 1.20608C8.02226 1.23756 7.98493 1.26246 7.94384 1.27933C7.90275 1.29619 7.85872 1.30468 7.81432 1.3043Z" fill="#075BA3"/>
<path d="M5.95366 1.30432C5.88683 1.30488 5.82134 1.28553 5.7655 1.24871C5.70967 1.21189 5.66599 1.15926 5.64003 1.0975C5.61406 1.03574 5.60697 0.967643 5.61966 0.901839C5.63235 0.836036 5.66425 0.775496 5.7113 0.727902C5.75835 0.680308 5.81844 0.647806 5.88394 0.63452C5.94944 0.621234 6.0174 0.627764 6.0792 0.653279C6.14099 0.678795 6.19384 0.722147 6.23102 0.777834C6.26821 0.833521 6.28807 0.899033 6.28807 0.966056C6.28807 1.05527 6.25293 1.14088 6.1903 1.20423C6.12766 1.26759 6.04261 1.30356 5.95366 1.30432Z" fill="#075BA3"/>
<path d="M5.95364 3.18194C5.8867 3.18251 5.8211 3.16308 5.7652 3.12613C5.7093 3.08918 5.66563 3.03638 5.63975 2.97446C5.61387 2.91253 5.60695 2.84428 5.61987 2.7784C5.63279 2.71252 5.66497 2.65199 5.71231 2.60451C5.75965 2.55703 5.82001 2.52475 5.8857 2.51179C5.95139 2.49883 6.01944 2.50577 6.08118 2.53173C6.14292 2.55769 6.19557 2.60149 6.23241 2.65755C6.26925 2.71361 6.28862 2.77941 6.28806 2.84655C6.28806 2.9355 6.25282 3.02081 6.19011 3.08371C6.12739 3.1466 6.04234 3.18194 5.95364 3.18194Z" fill="#075BA3"/>
<path d="M7.81431 3.18195C7.73059 3.1742 7.65277 3.13536 7.59612 3.07305C7.53946 3.01074 7.50806 2.92945 7.50806 2.84513C7.50806 2.7608 7.53946 2.67951 7.59612 2.6172C7.65277 2.55489 7.73059 2.51605 7.81431 2.5083C7.86102 2.50397 7.90811 2.50947 7.95258 2.52443C7.99706 2.53939 8.03793 2.56349 8.07258 2.59518C8.10724 2.62688 8.13493 2.66548 8.15387 2.70852C8.17282 2.75156 8.1826 2.79808 8.1826 2.84513C8.1826 2.89217 8.17282 2.9387 8.15387 2.98173C8.13493 3.02477 8.10724 3.06337 8.07258 3.09507C8.03793 3.12677 7.99706 3.15087 7.95258 3.16583C7.90811 3.18079 7.86102 3.18628 7.81431 3.18195Z" fill="#075BA3"/>
<path d="M9.69217 3.18194C9.62522 3.18251 9.55962 3.16308 9.50372 3.12613C9.44782 3.08918 9.40415 3.03638 9.37827 2.97446C9.35239 2.91253 9.34547 2.84428 9.35839 2.7784C9.37132 2.71252 9.4035 2.65199 9.45083 2.60451C9.49817 2.55703 9.55853 2.52475 9.62422 2.51179C9.68991 2.49883 9.75796 2.50577 9.8197 2.53173C9.88145 2.55769 9.93409 2.60149 9.97093 2.65755C10.0078 2.71361 10.0271 2.77941 10.0266 2.84655C10.0266 2.9355 9.99135 3.02081 9.92863 3.08371C9.86592 3.1466 9.78086 3.18194 9.69217 3.18194Z" fill="#075BA3"/>
<path d="M7.81432 5.06245C7.74762 5.06245 7.68241 5.04261 7.62694 5.00544C7.57148 4.96827 7.52825 4.91544 7.50272 4.85363C7.4772 4.79182 7.47052 4.72381 7.48353 4.65819C7.49655 4.59258 7.52867 4.53231 7.57584 4.485C7.623 4.43769 7.6831 4.40548 7.74852 4.39243C7.81395 4.37937 7.88176 4.38607 7.94339 4.41167C8.00502 4.43728 8.05769 4.48063 8.09475 4.53626C8.13181 4.59188 8.15159 4.65728 8.15159 4.72419C8.15198 4.76871 8.14351 4.81287 8.1267 4.85408C8.10988 4.8953 8.08505 4.93274 8.05366 4.96422C8.02226 4.99571 7.98493 5.02061 7.94384 5.03748C7.90275 5.05434 7.85872 5.06283 7.81432 5.06245Z" fill="#075BA3"/>
<path d="M5.95366 5.06243C5.88683 5.063 5.82134 5.04365 5.7655 5.00683C5.70967 4.97 5.66599 4.91738 5.64003 4.85562C5.61406 4.79386 5.60697 4.72576 5.61966 4.65996C5.63235 4.59415 5.66425 4.53361 5.7113 4.48602C5.75835 4.43843 5.81844 4.40592 5.88394 4.39264C5.94944 4.37935 6.0174 4.38588 6.0792 4.4114C6.14099 4.43691 6.19384 4.48026 6.23102 4.53595C6.26821 4.59164 6.28807 4.65715 6.28807 4.72417C6.28807 4.81339 6.25293 4.899 6.1903 4.96235C6.12766 5.02571 6.04261 5.06168 5.95366 5.06243Z" fill="#075BA3"/>
<path d="M4.06164 5.06245C3.99493 5.06245 3.92972 5.04261 3.87426 5.00544C3.81879 4.96827 3.77557 4.91544 3.75004 4.85363C3.72451 4.79182 3.71783 4.72381 3.73085 4.65819C3.74386 4.59258 3.77598 4.53231 3.82315 4.485C3.87032 4.43769 3.93041 4.40548 3.99584 4.39243C4.06126 4.37937 4.12908 4.38607 4.1907 4.41167C4.25233 4.43728 4.30501 4.48063 4.34207 4.53626C4.37913 4.59188 4.39891 4.65728 4.39891 4.72419C4.39929 4.76871 4.39083 4.81287 4.37401 4.85408C4.3572 4.8953 4.33237 4.93274 4.30097 4.96422C4.26958 4.99571 4.23225 5.02061 4.19115 5.03748C4.15006 5.05434 4.10603 5.06283 4.06164 5.06245Z" fill="#075BA3"/>
<path d="M4.06163 6.94007C3.9779 6.93232 3.90009 6.89348 3.84343 6.83117C3.78678 6.76886 3.75537 6.68757 3.75537 6.60324C3.75537 6.51892 3.78678 6.43763 3.84343 6.37532C3.90009 6.31301 3.9779 6.27417 4.06163 6.26642C4.10833 6.26209 4.15543 6.26758 4.1999 6.28254C4.24437 6.2975 4.28524 6.3216 4.3199 6.3533C4.35456 6.385 4.38224 6.4236 4.40119 6.46664C4.42013 6.50967 4.42991 6.5562 4.42991 6.60324C4.42991 6.65029 4.42013 6.69681 4.40119 6.73985C4.38224 6.78289 4.35456 6.82149 4.3199 6.85319C4.28524 6.88489 4.24437 6.90898 4.1999 6.92394C4.15543 6.9389 4.10833 6.9444 4.06163 6.94007Z" fill="#075BA3"/>
<path d="M4.06164 8.82056C3.99493 8.82056 3.92972 8.80073 3.87426 8.76356C3.81879 8.72639 3.77557 8.67356 3.75004 8.61175C3.72451 8.54994 3.71783 8.48193 3.73085 8.41631C3.74386 8.3507 3.77598 8.29042 3.82315 8.24312C3.87032 8.19581 3.93041 8.16359 3.99584 8.15054C4.06126 8.13749 4.12908 8.14419 4.1907 8.16979C4.25233 8.19539 4.30501 8.23875 4.34207 8.29438C4.37913 8.35 4.39891 8.4154 4.39891 8.4823C4.39929 8.52683 4.39083 8.57099 4.37401 8.6122C4.3572 8.65341 4.33237 8.69086 4.30097 8.72234C4.26958 8.75383 4.23225 8.77873 4.19115 8.79559C4.15006 8.81246 4.10603 8.82095 4.06164 8.82056Z" fill="#075BA3"/>
<path d="M4.06164 10.7011C3.99493 10.7011 3.92972 10.6812 3.87426 10.6441C3.81879 10.6069 3.77557 10.5541 3.75004 10.4922C3.72451 10.4304 3.71783 10.3624 3.73085 10.2968C3.74386 10.2312 3.77598 10.1709 3.82315 10.1236C3.87032 10.0763 3.93041 10.0441 3.99584 10.031C4.06126 10.018 4.12908 10.0247 4.1907 10.0503C4.25233 10.0759 4.30501 10.1192 4.34207 10.1749C4.37913 10.2305 4.39891 10.2959 4.39891 10.3628C4.39929 10.4073 4.39083 10.4515 4.37401 10.4927C4.3572 10.5339 4.33237 10.5713 4.30097 10.6028C4.26958 10.6343 4.23225 10.6592 4.19115 10.6761C4.15006 10.693 4.10603 10.7014 4.06164 10.7011Z" fill="#075BA3"/>
<path d="M4.06164 12.5787C3.99493 12.5787 3.92972 12.5589 3.87426 12.5217C3.81879 12.4845 3.77557 12.4317 3.75004 12.3699C3.72451 12.3081 3.71783 12.2401 3.73085 12.1745C3.74386 12.1088 3.77598 12.0486 3.82315 12.0013C3.87032 11.954 3.93041 11.9217 3.99584 11.9087C4.06126 11.8956 4.12908 11.9023 4.1907 11.9279C4.25233 11.9535 4.30501 11.9969 4.34207 12.0525C4.37913 12.1082 4.39891 12.1736 4.39891 12.2405C4.39929 12.285 4.39083 12.3291 4.37401 12.3703C4.3572 12.4116 4.33237 12.449 4.30097 12.4805C4.26958 12.512 4.23225 12.5369 4.19115 12.5537C4.15006 12.5706 4.10603 12.5791 4.06164 12.5787Z" fill="#075BA3"/>
<path d="M4.06164 14.4592C3.99493 14.4592 3.92972 14.4394 3.87426 14.4022C3.81879 14.365 3.77557 14.3122 3.75004 14.2504C3.72451 14.1886 3.71783 14.1206 3.73085 14.055C3.74386 13.9893 3.77598 13.9291 3.82315 13.8818C3.87032 13.8345 3.93041 13.8022 3.99584 13.7892C4.06126 13.7761 4.12908 13.7828 4.1907 13.8084C4.25233 13.834 4.30501 13.8774 4.34207 13.933C4.37913 13.9886 4.39891 14.054 4.39891 14.1209C4.39929 14.1655 4.39083 14.2096 4.37401 14.2508C4.3572 14.2921 4.33237 14.3295 4.30097 14.361C4.26958 14.3925 4.23225 14.4174 4.19115 14.4342C4.15006 14.4511 4.10603 14.4596 4.06164 14.4592Z" fill="#075BA3"/>
<path d="M4.06162 16.3397C3.9948 16.3397 3.92948 16.3198 3.87395 16.2825C3.81843 16.2452 3.7752 16.1922 3.74976 16.1302C3.72432 16.0682 3.71781 16.0001 3.73106 15.9344C3.74431 15.8687 3.77671 15.8084 3.82417 15.7612C3.87162 15.714 3.93198 15.6821 3.9976 15.6693C4.06321 15.6566 4.13111 15.6637 4.19269 15.6898C4.25426 15.7158 4.30674 15.7596 4.34345 15.8156C4.38016 15.8716 4.39946 15.9373 4.3989 16.0043C4.3989 16.0486 4.39015 16.0924 4.37317 16.1333C4.35619 16.1742 4.3313 16.2113 4.29994 16.2425C4.26858 16.2737 4.23138 16.2983 4.19048 16.315C4.14957 16.3317 4.10578 16.3401 4.06162 16.3397Z" fill="#075BA3"/>
<path d="M4.06164 18.2173C3.99493 18.2173 3.92972 18.1975 3.87426 18.1603C3.81879 18.1231 3.77557 18.0703 3.75004 18.0085C3.72451 17.9467 3.71783 17.8787 3.73085 17.8131C3.74386 17.7475 3.77598 17.6872 3.82315 17.6399C3.87032 17.5926 3.93041 17.5604 3.99584 17.5473C4.06126 17.5342 4.12908 17.5409 4.1907 17.5666C4.25233 17.5922 4.30501 17.6355 4.34207 17.6911C4.37913 17.7468 4.39891 17.8122 4.39891 17.8791C4.39929 17.9236 4.39083 17.9677 4.37401 18.009C4.3572 18.0502 4.33237 18.0876 4.30097 18.1191C4.26958 18.1506 4.23225 18.1755 4.19115 18.1924C4.15006 18.2092 4.10603 18.2177 4.06164 18.2173Z" fill="#075BA3"/>
<path d="M2.25224 14.4592C2.18541 14.4598 2.11993 14.4404 2.06409 14.4036C2.00825 14.3668 1.96458 14.3141 1.93861 14.2524C1.91264 14.1906 1.90556 14.1225 1.91825 14.0567C1.93093 13.9909 1.96283 13.9304 2.00988 13.8828C2.05693 13.8352 2.11702 13.8027 2.18252 13.7894C2.24803 13.7761 2.31599 13.7826 2.37778 13.8082C2.43958 13.8337 2.49242 13.877 2.52961 13.9327C2.56679 13.9884 2.58665 14.0539 2.58665 14.1209C2.58666 14.2101 2.55151 14.2958 2.48888 14.3591C2.42625 14.4225 2.34119 14.4584 2.25224 14.4592Z" fill="#075BA3"/>
<path d="M2.25223 16.3397C2.18528 16.3403 2.11968 16.3208 2.06378 16.2839C2.00788 16.2469 1.96421 16.1941 1.93833 16.1322C1.91245 16.0703 1.90553 16.002 1.91845 15.9361C1.93137 15.8703 1.96355 15.8097 2.01089 15.7623C2.05823 15.7148 2.11859 15.6825 2.18428 15.6695C2.24997 15.6566 2.31802 15.6635 2.37976 15.6895C2.44151 15.7154 2.49415 15.7592 2.53099 15.8153C2.56783 15.8714 2.58721 15.9372 2.58664 16.0043C2.58589 16.093 2.55042 16.1779 2.48787 16.2406C2.42531 16.3034 2.34069 16.3389 2.25223 16.3397Z" fill="#075BA3"/>
<path d="M2.25232 18.2173C2.20561 18.2216 2.15852 18.2162 2.11405 18.2012C2.06958 18.1862 2.02871 18.1621 1.99405 18.1304C1.95939 18.0987 1.9317 18.0601 1.91276 18.0171C1.89382 17.9741 1.88403 17.9275 1.88403 17.8805C1.88403 17.8335 1.89382 17.7869 1.91276 17.7439C1.9317 17.7009 1.95939 17.6623 1.99405 17.6306C2.02871 17.5989 2.06958 17.5748 2.11405 17.5598C2.15852 17.5448 2.20561 17.5393 2.25232 17.5437C2.33604 17.5514 2.41386 17.5903 2.47052 17.6526C2.52717 17.7149 2.55858 17.7962 2.55858 17.8805C2.55858 17.9648 2.52717 18.0461 2.47052 18.1084C2.41386 18.1707 2.33604 18.2096 2.25232 18.2173Z" fill="#075BA3"/>
<path d="M0.337188 16.3397C0.270242 16.3403 0.204642 16.3208 0.148743 16.2839C0.0928427 16.2469 0.0491719 16.1941 0.0232911 16.1322C-0.00258969 16.0703 -0.00950946 16.002 0.00341296 15.9361C0.0163354 15.8703 0.0485153 15.8097 0.095855 15.7623C0.143195 15.7148 0.203552 15.6825 0.269241 15.6695C0.334931 15.6566 0.40298 15.6635 0.464724 15.6895C0.526467 15.7154 0.579112 15.7592 0.615953 15.8153C0.652794 15.8714 0.672166 15.9372 0.671601 16.0043C0.670855 16.093 0.635382 16.1779 0.572829 16.2406C0.510275 16.3034 0.425649 16.3389 0.337188 16.3397Z" fill="#075BA3"/>
<path d="M4.06163 20.0949C3.9779 20.0872 3.90009 20.0484 3.84343 19.986C3.78678 19.9237 3.75537 19.8424 3.75537 19.7581C3.75537 19.6738 3.78678 19.5925 3.84343 19.5302C3.90009 19.4679 3.9779 19.429 4.06163 19.4213C4.10833 19.417 4.15543 19.4225 4.1999 19.4374C4.24437 19.4524 4.28524 19.4765 4.3199 19.5082C4.35456 19.5399 4.38224 19.5785 4.40119 19.6215C4.42013 19.6646 4.42991 19.7111 4.42991 19.7581C4.42991 19.8052 4.42013 19.8517 4.40119 19.8947C4.38224 19.9378 4.35456 19.9764 4.3199 20.0081C4.28524 20.0398 4.24437 20.0639 4.1999 20.0788C4.15543 20.0938 4.10833 20.0993 4.06163 20.0949Z" fill="#075BA3"/>
<path d="M4.06164 21.9754C3.99493 21.9754 3.92972 21.9556 3.87426 21.9184C3.81879 21.8813 3.77557 21.8284 3.75004 21.7666C3.72451 21.7048 3.71783 21.6368 3.73085 21.5712C3.74386 21.5056 3.77598 21.4453 3.82315 21.398C3.87032 21.3507 3.93041 21.3185 3.99584 21.3054C4.06126 21.2924 4.12908 21.2991 4.1907 21.3247C4.25233 21.3503 4.30501 21.3936 4.34207 21.4493C4.37913 21.5049 4.39891 21.5703 4.39891 21.6372C4.39929 21.6817 4.39083 21.7259 4.37401 21.7671C4.3572 21.8083 4.33237 21.8457 4.30097 21.8772C4.26958 21.9087 4.23225 21.9336 4.19115 21.9505C4.15006 21.9673 4.10603 21.9758 4.06164 21.9754Z" fill="#075BA3"/>
<path d="M4.06163 23.8531C3.9779 23.8453 3.90009 23.8065 3.84343 23.7442C3.78678 23.6819 3.75537 23.6006 3.75537 23.5163C3.75537 23.4319 3.78678 23.3507 3.84343 23.2883C3.90009 23.226 3.9779 23.1872 4.06163 23.1794C4.10833 23.1751 4.15543 23.1806 4.1999 23.1956C4.24437 23.2105 4.28524 23.2346 4.3199 23.2663C4.35456 23.298 4.38224 23.3366 4.40119 23.3797C4.42013 23.4227 4.42991 23.4692 4.42991 23.5163C4.42991 23.5633 4.42013 23.6098 4.40119 23.6529C4.38224 23.6959 4.35456 23.7345 4.3199 23.7662C4.28524 23.7979 4.24437 23.822 4.1999 23.837C4.15543 23.8519 4.10833 23.8574 4.06163 23.8531Z" fill="#075BA3"/>
<path d="M4.06164 25.7336C3.99493 25.7336 3.92972 25.7138 3.87426 25.6766C3.81879 25.6394 3.77557 25.5866 3.75004 25.5248C3.72451 25.463 3.71783 25.395 3.73085 25.3293C3.74386 25.2637 3.77598 25.2034 3.82315 25.1561C3.87032 25.1088 3.93041 25.0766 3.99584 25.0636C4.06126 25.0505 4.12908 25.0572 4.1907 25.0828C4.25233 25.1084 4.30501 25.1518 4.34207 25.2074C4.37913 25.263 4.39891 25.3284 4.39891 25.3953C4.39929 25.4399 4.39083 25.484 4.37401 25.5252C4.3572 25.5664 4.33237 25.6039 4.30097 25.6354C4.26958 25.6669 4.23225 25.6918 4.19115 25.7086C4.15006 25.7255 4.10603 25.734 4.06164 25.7336Z" fill="#075BA3"/>
<path d="M4.06164 27.6141C3.99493 27.6141 3.92972 27.5942 3.87426 27.5571C3.81879 27.5199 3.77557 27.4671 3.75004 27.4053C3.72451 27.3435 3.71783 27.2754 3.73085 27.2098C3.74386 27.1442 3.77598 27.0839 3.82315 27.0366C3.87032 26.9893 3.93041 26.9571 3.99584 26.9441C4.06126 26.931 4.12908 26.9377 4.1907 26.9633C4.25233 26.9889 4.30501 27.0323 4.34207 27.0879C4.37913 27.1435 4.39891 27.2089 4.39891 27.2758C4.39929 27.3203 4.39083 27.3645 4.37401 27.4057C4.3572 27.4469 4.33237 27.4844 4.30097 27.5159C4.26958 27.5473 4.23225 27.5722 4.19115 27.5891C4.15006 27.606 4.10603 27.6145 4.06164 27.6141Z" fill="#075BA3"/>
<path d="M4.06162 29.4917C3.9948 29.4917 3.92948 29.4718 3.87395 29.4345C3.81843 29.3972 3.7752 29.3442 3.74976 29.2822C3.72432 29.2202 3.71781 29.1521 3.73106 29.0864C3.74431 29.0207 3.77671 28.9604 3.82417 28.9132C3.87162 28.8661 3.93198 28.8341 3.9976 28.8213C4.06321 28.8086 4.13111 28.8157 4.19269 28.8418C4.25426 28.8678 4.30674 28.9116 4.34345 28.9676C4.38016 29.0236 4.39946 29.0893 4.3989 29.1563C4.3989 29.2006 4.39015 29.2444 4.37317 29.2853C4.35619 29.3262 4.3313 29.3633 4.29994 29.3945C4.26858 29.4257 4.23138 29.4503 4.19048 29.467C4.14957 29.4837 4.10578 29.4921 4.06162 29.4917Z" fill="#075BA3"/>
<path d="M5.95379 6.94006C5.88733 6.9406 5.8222 6.92144 5.76657 6.88499C5.71093 6.84853 5.66727 6.7964 5.64108 6.73515C5.61488 6.67389 5.60731 6.60624 5.61932 6.54068C5.63133 6.47513 5.66238 6.41459 5.70858 6.36668C5.75478 6.31876 5.81406 6.2856 5.87898 6.27136C5.9439 6.25712 6.01157 6.26243 6.0735 6.28663C6.13542 6.31083 6.18883 6.35284 6.22703 6.40738C6.26523 6.46192 6.28651 6.52657 6.2882 6.5932C6.28974 6.6382 6.28222 6.68305 6.26611 6.72507C6.24999 6.7671 6.2256 6.80544 6.19439 6.83781C6.16318 6.87018 6.1258 6.89591 6.08446 6.91348C6.04313 6.93105 5.99868 6.94009 5.95379 6.94006Z" fill="#075BA3"/>
<path d="M5.95366 8.82058C5.88683 8.82115 5.82134 8.8018 5.7655 8.76497C5.70967 8.72815 5.66599 8.67552 5.64003 8.61377C5.61406 8.55201 5.60697 8.48391 5.61966 8.41811C5.63235 8.3523 5.66425 8.29176 5.7113 8.24417C5.75835 8.19657 5.81844 8.16407 5.88394 8.15079C5.94944 8.1375 6.0174 8.14403 6.0792 8.16955C6.14099 8.19506 6.19384 8.23841 6.23102 8.2941C6.26821 8.34979 6.28807 8.4153 6.28807 8.48232C6.28807 8.57154 6.25293 8.65715 6.1903 8.7205C6.12766 8.78385 6.04261 8.81983 5.95366 8.82058Z" fill="#075BA3"/>
<path d="M5.95366 10.7011C5.88683 10.7016 5.82134 10.6823 5.7655 10.6455C5.70967 10.6086 5.66599 10.556 5.64003 10.4943C5.61406 10.4325 5.60697 10.3644 5.61966 10.2986C5.63235 10.2328 5.66425 10.1723 5.7113 10.1247C5.75835 10.0771 5.81844 10.0446 5.88394 10.0313C5.94944 10.018 6.0174 10.0245 6.0792 10.05C6.14099 10.0756 6.19384 10.1189 6.23102 10.1746C6.26821 10.2303 6.28807 10.2958 6.28807 10.3628C6.28807 10.452 6.25293 10.5376 6.1903 10.601C6.12766 10.6643 6.04261 10.7003 5.95366 10.7011Z" fill="#075BA3"/>
<path d="M5.95366 12.5787C5.88683 12.5793 5.82134 12.5599 5.7655 12.5231C5.70967 12.4863 5.66599 12.4336 5.64003 12.3719C5.61406 12.3101 5.60697 12.242 5.61966 12.1762C5.63235 12.1104 5.66425 12.0499 5.7113 12.0023C5.75835 11.9547 5.81844 11.9222 5.88394 11.9089C5.94944 11.8956 6.0174 11.9021 6.0792 11.9277C6.14099 11.9532 6.19384 11.9965 6.23102 12.0522C6.26821 12.1079 6.28807 12.1734 6.28807 12.2404C6.28807 12.3297 6.25293 12.4153 6.1903 12.4786C6.12766 12.542 6.04261 12.5779 5.95366 12.5787Z" fill="#075BA3"/>
<path d="M5.95366 14.4592C5.88683 14.4598 5.82134 14.4404 5.7655 14.4036C5.70967 14.3668 5.66599 14.3141 5.64003 14.2524C5.61406 14.1906 5.60697 14.1225 5.61966 14.0567C5.63235 13.9909 5.66425 13.9304 5.7113 13.8828C5.75835 13.8352 5.81844 13.8027 5.88394 13.7894C5.94944 13.7761 6.0174 13.7826 6.0792 13.8082C6.14099 13.8337 6.19384 13.877 6.23102 13.9327C6.26821 13.9884 6.28807 14.0539 6.28807 14.1209C6.28807 14.2101 6.25293 14.2958 6.1903 14.3591C6.12766 14.4225 6.04261 14.4584 5.95366 14.4592Z" fill="#075BA3"/>
<path d="M5.95366 18.2173C5.88683 18.2179 5.82134 18.1986 5.7655 18.1617C5.70967 18.1249 5.66599 18.0723 5.64003 18.0105C5.61406 17.9488 5.60697 17.8807 5.61966 17.8149C5.63235 17.7491 5.66425 17.6885 5.7113 17.6409C5.75835 17.5933 5.81844 17.5608 5.88394 17.5475C5.94944 17.5343 6.0174 17.5408 6.0792 17.5663C6.14099 17.5918 6.19384 17.6352 6.23102 17.6909C6.26821 17.7465 6.28807 17.8121 6.28807 17.8791C6.28807 17.9683 6.25293 18.0539 6.1903 18.1173C6.12766 18.1806 6.04261 18.2166 5.95366 18.2173Z" fill="#075BA3"/>
<path d="M5.95364 20.095C5.8867 20.0955 5.8211 20.0761 5.7652 20.0392C5.7093 20.0022 5.66563 19.9494 5.63975 19.8875C5.61387 19.8256 5.60695 19.7573 5.61987 19.6914C5.63279 19.6255 5.66497 19.565 5.71231 19.5175C5.75965 19.4701 5.82001 19.4378 5.8857 19.4248C5.95139 19.4119 6.01944 19.4188 6.08118 19.4448C6.14292 19.4707 6.19557 19.5145 6.23241 19.5706C6.26925 19.6266 6.28862 19.6924 6.28806 19.7596C6.28806 19.8485 6.25282 19.9338 6.19011 19.9967C6.12739 20.0596 6.04234 20.095 5.95364 20.095Z" fill="#075BA3"/>
<path d="M5.95366 21.9755C5.88683 21.976 5.82134 21.9567 5.7655 21.9199C5.70967 21.883 5.66599 21.8304 5.64003 21.7686C5.61406 21.7069 5.60697 21.6388 5.61966 21.573C5.63235 21.5072 5.66425 21.4466 5.7113 21.399C5.75835 21.3515 5.81844 21.3189 5.88394 21.3057C5.94944 21.2924 6.0174 21.2989 6.0792 21.3244C6.14099 21.3499 6.19384 21.3933 6.23102 21.449C6.26821 21.5047 6.28807 21.5702 6.28807 21.6372C6.28807 21.7264 6.25293 21.812 6.1903 21.8754C6.12766 21.9387 6.04261 21.9747 5.95366 21.9755Z" fill="#075BA3"/>
<path d="M5.95379 23.8531C5.88733 23.8536 5.8222 23.8345 5.76657 23.798C5.71093 23.7616 5.66727 23.7094 5.64108 23.6482C5.61488 23.5869 5.60731 23.5193 5.61932 23.4537C5.63133 23.3882 5.66238 23.3276 5.70858 23.2797C5.75478 23.2318 5.81406 23.1986 5.87898 23.1844C5.9439 23.1701 6.01157 23.1755 6.0735 23.1997C6.13542 23.2239 6.18883 23.2659 6.22703 23.3204C6.26523 23.3749 6.28651 23.4396 6.2882 23.5062C6.28974 23.5512 6.28222 23.5961 6.26611 23.6381C6.24999 23.6801 6.2256 23.7185 6.19439 23.7508C6.16318 23.7832 6.1258 23.8089 6.08446 23.8265C6.04313 23.8441 5.99868 23.8531 5.95379 23.8531Z" fill="#075BA3"/>
<path d="M5.95366 25.7336C5.88683 25.7341 5.82134 25.7148 5.7655 25.678C5.70967 25.6411 5.66599 25.5885 5.64003 25.5268C5.61406 25.465 5.60697 25.3969 5.61966 25.3311C5.63235 25.2653 5.66425 25.2048 5.7113 25.1572C5.75835 25.1096 5.81844 25.0771 5.88394 25.0638C5.94944 25.0505 6.0174 25.057 6.0792 25.0825C6.14099 25.1081 6.19384 25.1514 6.23102 25.2071C6.26821 25.2628 6.28807 25.3283 6.28807 25.3953C6.28807 25.4845 6.25293 25.5701 6.1903 25.6335C6.12766 25.6968 6.04261 25.7328 5.95366 25.7336Z" fill="#075BA3"/>
<path d="M5.95366 27.6141C5.88683 27.6146 5.82134 27.5953 5.7655 27.5585C5.70967 27.5216 5.66599 27.469 5.64003 27.4073C5.61406 27.3455 5.60697 27.2774 5.61966 27.2116C5.63235 27.1458 5.66425 27.0852 5.7113 27.0377C5.75835 26.9901 5.81844 26.9576 5.88394 26.9443C5.94944 26.931 6.0174 26.9375 6.0792 26.963C6.14099 26.9885 6.19384 27.0319 6.23102 27.0876C6.26821 27.1433 6.28807 27.2088 6.28807 27.2758C6.28807 27.365 6.25293 27.4506 6.1903 27.514C6.12766 27.5773 6.04261 27.6133 5.95366 27.6141Z" fill="#075BA3"/>
<path d="M5.95364 29.4917C5.8867 29.4923 5.8211 29.4729 5.7652 29.4359C5.7093 29.399 5.66563 29.3462 5.63975 29.2842C5.61387 29.2223 5.60695 29.1541 5.61987 29.0882C5.63279 29.0223 5.66497 28.9618 5.71231 28.9143C5.75965 28.8668 5.82001 28.8345 5.8857 28.8216C5.95139 28.8086 6.01944 28.8156 6.08118 28.8415C6.14292 28.8675 6.19557 28.9113 6.23241 28.9673C6.26925 29.0234 6.28862 29.0892 6.28806 29.1563C6.28731 29.2451 6.25184 29.3299 6.18928 29.3927C6.12673 29.4554 6.0421 29.491 5.95364 29.4917Z" fill="#075BA3"/>
<path d="M7.81431 6.94007C7.73059 6.93232 7.65277 6.89348 7.59612 6.83117C7.53946 6.76886 7.50806 6.68757 7.50806 6.60324C7.50806 6.51892 7.53946 6.43763 7.59612 6.37532C7.65277 6.31301 7.73059 6.27417 7.81431 6.26642C7.86102 6.26209 7.90811 6.26758 7.95258 6.28254C7.99706 6.2975 8.03793 6.3216 8.07258 6.3533C8.10724 6.385 8.13493 6.4236 8.15387 6.46664C8.17282 6.50967 8.1826 6.5562 8.1826 6.60324C8.1826 6.65029 8.17282 6.69681 8.15387 6.73985C8.13493 6.78289 8.10724 6.82149 8.07258 6.85319C8.03793 6.88489 7.99706 6.90898 7.95258 6.92394C7.90811 6.9389 7.86102 6.9444 7.81431 6.94007Z" fill="#075BA3"/>
<path d="M7.81432 8.82056C7.74762 8.82056 7.68241 8.80073 7.62694 8.76356C7.57148 8.72639 7.52825 8.67356 7.50272 8.61175C7.4772 8.54994 7.47052 8.48193 7.48353 8.41631C7.49655 8.3507 7.52867 8.29042 7.57584 8.24312C7.623 8.19581 7.6831 8.16359 7.74852 8.15054C7.81395 8.13749 7.88176 8.14419 7.94339 8.16979C8.00502 8.19539 8.05769 8.23875 8.09475 8.29438C8.13181 8.35 8.15159 8.4154 8.15159 8.4823C8.15198 8.52683 8.14351 8.57099 8.1267 8.6122C8.10988 8.65341 8.08505 8.69086 8.05366 8.72234C8.02226 8.75383 7.98493 8.77873 7.94384 8.79559C7.90275 8.81246 7.85872 8.82095 7.81432 8.82056Z" fill="#075BA3"/>
<path d="M7.81432 10.7011C7.74762 10.7011 7.68241 10.6812 7.62694 10.6441C7.57148 10.6069 7.52825 10.5541 7.50272 10.4922C7.4772 10.4304 7.47052 10.3624 7.48353 10.2968C7.49655 10.2312 7.52867 10.1709 7.57584 10.1236C7.623 10.0763 7.6831 10.0441 7.74852 10.031C7.81395 10.018 7.88176 10.0247 7.94339 10.0503C8.00502 10.0759 8.05769 10.1192 8.09475 10.1749C8.13181 10.2305 8.15159 10.2959 8.15159 10.3628C8.15198 10.4073 8.14351 10.4515 8.1267 10.4927C8.10988 10.5339 8.08505 10.5713 8.05366 10.6028C8.02226 10.6343 7.98493 10.6592 7.94384 10.6761C7.90275 10.693 7.85872 10.7014 7.81432 10.7011Z" fill="#075BA3"/>
<path d="M7.81432 12.5787C7.74762 12.5787 7.68241 12.5589 7.62694 12.5217C7.57148 12.4845 7.52825 12.4317 7.50272 12.3699C7.4772 12.3081 7.47052 12.2401 7.48353 12.1745C7.49655 12.1088 7.52867 12.0486 7.57584 12.0013C7.623 11.954 7.6831 11.9217 7.74852 11.9087C7.81395 11.8956 7.88176 11.9023 7.94339 11.9279C8.00502 11.9535 8.05769 11.9969 8.09475 12.0525C8.13181 12.1082 8.15159 12.1736 8.15159 12.2405C8.15198 12.285 8.14351 12.3291 8.1267 12.3703C8.10988 12.4116 8.08505 12.449 8.05366 12.4805C8.02226 12.512 7.98493 12.5369 7.94384 12.5537C7.90275 12.5706 7.85872 12.5791 7.81432 12.5787Z" fill="#075BA3"/>
<path d="M7.81431 20.0949C7.73059 20.0872 7.65277 20.0484 7.59612 19.986C7.53946 19.9237 7.50806 19.8424 7.50806 19.7581C7.50806 19.6738 7.53946 19.5925 7.59612 19.5302C7.65277 19.4679 7.73059 19.429 7.81431 19.4213C7.86102 19.417 7.90811 19.4225 7.95258 19.4374C7.99706 19.4524 8.03793 19.4765 8.07258 19.5082C8.10724 19.5399 8.13493 19.5785 8.15387 19.6215C8.17282 19.6646 8.1826 19.7111 8.1826 19.7581C8.1826 19.8052 8.17282 19.8517 8.15387 19.8947C8.13493 19.9378 8.10724 19.9764 8.07258 20.0081C8.03793 20.0398 7.99706 20.0639 7.95258 20.0788C7.90811 20.0938 7.86102 20.0993 7.81431 20.0949Z" fill="#075BA3"/>
<path d="M7.81432 21.9754C7.74762 21.9754 7.68241 21.9556 7.62694 21.9184C7.57148 21.8813 7.52825 21.8284 7.50272 21.7666C7.4772 21.7048 7.47052 21.6368 7.48353 21.5712C7.49655 21.5056 7.52867 21.4453 7.57584 21.398C7.623 21.3507 7.6831 21.3185 7.74852 21.3054C7.81395 21.2924 7.88176 21.2991 7.94339 21.3247C8.00502 21.3503 8.05769 21.3936 8.09475 21.4493C8.13181 21.5049 8.15159 21.5703 8.15159 21.6372C8.15198 21.6817 8.14351 21.7259 8.1267 21.7671C8.10988 21.8083 8.08505 21.8457 8.05366 21.8772C8.02226 21.9087 7.98493 21.9336 7.94384 21.9505C7.90275 21.9673 7.85872 21.9758 7.81432 21.9754Z" fill="#075BA3"/>
<path d="M7.81431 23.8531C7.73059 23.8453 7.65277 23.8065 7.59612 23.7442C7.53946 23.6819 7.50806 23.6006 7.50806 23.5163C7.50806 23.4319 7.53946 23.3507 7.59612 23.2883C7.65277 23.226 7.73059 23.1872 7.81431 23.1794C7.86102 23.1751 7.90811 23.1806 7.95258 23.1956C7.99706 23.2105 8.03793 23.2346 8.07258 23.2663C8.10724 23.298 8.13493 23.3366 8.15387 23.3797C8.17282 23.4227 8.1826 23.4692 8.1826 23.5163C8.1826 23.5633 8.17282 23.6098 8.15387 23.6529C8.13493 23.6959 8.10724 23.7345 8.07258 23.7662C8.03793 23.7979 7.99706 23.822 7.95258 23.837C7.90811 23.8519 7.86102 23.8574 7.81431 23.8531Z" fill="#075BA3"/>
<path d="M7.81432 25.7336C7.74762 25.7336 7.68241 25.7138 7.62694 25.6766C7.57148 25.6394 7.52825 25.5866 7.50272 25.5248C7.4772 25.463 7.47052 25.395 7.48353 25.3293C7.49655 25.2637 7.52867 25.2034 7.57584 25.1561C7.623 25.1088 7.6831 25.0766 7.74852 25.0636C7.81395 25.0505 7.88176 25.0572 7.94339 25.0828C8.00502 25.1084 8.05769 25.1518 8.09475 25.2074C8.13181 25.263 8.15159 25.3284 8.15159 25.3953C8.15198 25.4399 8.14351 25.484 8.1267 25.5252C8.10988 25.5664 8.08505 25.6039 8.05366 25.6354C8.02226 25.6669 7.98493 25.6918 7.94384 25.7086C7.90275 25.7255 7.85872 25.734 7.81432 25.7336Z" fill="#075BA3"/>
<path d="M7.81432 27.6141C7.74762 27.6141 7.68241 27.5942 7.62694 27.5571C7.57148 27.5199 7.52825 27.4671 7.50272 27.4053C7.4772 27.3435 7.47052 27.2754 7.48353 27.2098C7.49655 27.1442 7.52867 27.0839 7.57584 27.0366C7.623 26.9893 7.6831 26.9571 7.74852 26.9441C7.81395 26.931 7.88176 26.9377 7.94339 26.9633C8.00502 26.9889 8.05769 27.0323 8.09475 27.0879C8.13181 27.1435 8.15159 27.2089 8.15159 27.2758C8.15198 27.3203 8.14351 27.3645 8.1267 27.4057C8.10988 27.4469 8.08505 27.4844 8.05366 27.5159C8.02226 27.5473 7.98493 27.5722 7.94384 27.5891C7.90275 27.606 7.85872 27.6145 7.81432 27.6141Z" fill="#075BA3"/>
<path d="M7.81431 29.4917C7.74748 29.4917 7.68216 29.4718 7.62664 29.4345C7.57111 29.3972 7.52789 29.3442 7.50245 29.2822C7.47701 29.2202 7.4705 29.1521 7.48374 29.0864C7.49699 29.0207 7.5294 28.9604 7.57685 28.9132C7.62431 28.8661 7.68467 28.8341 7.75028 28.8213C7.81589 28.8086 7.88379 28.8157 7.94537 28.8418C8.00695 28.8678 8.05942 28.9116 8.09614 28.9676C8.13285 29.0236 8.15215 29.0893 8.15158 29.1563C8.15158 29.2006 8.14284 29.2444 8.12586 29.2853C8.10887 29.3262 8.08398 29.3633 8.05263 29.3945C8.02127 29.4257 7.98407 29.4503 7.94316 29.467C7.90226 29.4837 7.85847 29.4921 7.81431 29.4917Z" fill="#075BA3"/>
<path d="M5.95366 31.3722C5.88683 31.3728 5.82134 31.3534 5.7655 31.3166C5.70967 31.2798 5.66599 31.2272 5.64003 31.1654C5.61406 31.1036 5.60697 31.0355 5.61966 30.9697C5.63235 30.9039 5.66425 30.8434 5.7113 30.7958C5.75835 30.7482 5.81844 30.7157 5.88394 30.7024C5.94944 30.6891 6.0174 30.6957 6.0792 30.7212C6.14099 30.7467 6.19384 30.79 6.23102 30.8457C6.26821 30.9014 6.28807 30.9669 6.28807 31.034C6.28807 31.1232 6.25293 31.2088 6.1903 31.2721C6.12766 31.3355 6.04261 31.3715 5.95366 31.3722Z" fill="#075BA3"/>
<path d="M7.81432 31.3722C7.74762 31.3722 7.68241 31.3524 7.62694 31.3152C7.57148 31.278 7.52825 31.2252 7.50272 31.1634C7.4772 31.1016 7.47052 31.0336 7.48353 30.9679C7.49655 30.9023 7.52867 30.8421 7.57584 30.7948C7.623 30.7474 7.6831 30.7152 7.74852 30.7022C7.81395 30.6891 7.88176 30.6958 7.94339 30.7214C8.00502 30.747 8.05769 30.7904 8.09475 30.846C8.13181 30.9016 8.15159 30.967 8.15159 31.0339C8.15198 31.0785 8.14351 31.1226 8.1267 31.1638C8.10988 31.205 8.08505 31.2425 8.05366 31.274C8.02226 31.3055 7.98493 31.3304 7.94384 31.3472C7.90275 31.3641 7.85872 31.3726 7.81432 31.3722Z" fill="#075BA3"/>
<path d="M9.69217 29.4917C9.62522 29.4923 9.55962 29.4729 9.50372 29.4359C9.44782 29.399 9.40415 29.3462 9.37827 29.2842C9.35239 29.2223 9.34547 29.1541 9.35839 29.0882C9.37132 29.0223 9.4035 28.9618 9.45083 28.9143C9.49817 28.8668 9.55853 28.8345 9.62422 28.8216C9.68991 28.8086 9.75796 28.8156 9.8197 28.8415C9.88145 28.8675 9.93409 28.9113 9.97093 28.9673C10.0078 29.0234 10.0271 29.0892 10.0266 29.1563C10.0258 29.2451 9.99036 29.3299 9.92781 29.3927C9.86526 29.4554 9.78063 29.491 9.69217 29.4917Z" fill="#075BA3"/>
<path d="M9.69218 31.3722C9.62536 31.3728 9.55987 31.3534 9.50403 31.3166C9.44819 31.2798 9.40452 31.2272 9.37855 31.1654C9.35259 31.1036 9.3455 31.0355 9.35819 30.9697C9.37088 30.9039 9.40277 30.8434 9.44982 30.7958C9.49688 30.7482 9.55697 30.7157 9.62247 30.7024C9.68797 30.6891 9.75593 30.6957 9.81772 30.7212C9.87952 30.7467 9.93236 30.79 9.96955 30.8457C10.0067 30.9014 10.0266 30.9669 10.0266 31.034C10.0266 31.1232 9.99146 31.2088 9.92882 31.2721C9.86619 31.3355 9.78113 31.3715 9.69218 31.3722Z" fill="#075BA3"/>
<path d="M4.06163 3.18195C3.9779 3.1742 3.90009 3.13536 3.84343 3.07305C3.78678 3.01074 3.75537 2.92945 3.75537 2.84513C3.75537 2.7608 3.78678 2.67951 3.84343 2.6172C3.90009 2.55489 3.9779 2.51605 4.06163 2.5083C4.10833 2.50397 4.15543 2.50947 4.1999 2.52443C4.24437 2.53939 4.28524 2.56349 4.3199 2.59518C4.35456 2.62688 4.38224 2.66548 4.40119 2.70852C4.42013 2.75156 4.42991 2.79808 4.42991 2.84513C4.42991 2.89217 4.42013 2.9387 4.40119 2.98173C4.38224 3.02477 4.35456 3.06337 4.3199 3.09507C4.28524 3.12677 4.24437 3.15087 4.1999 3.16583C4.15543 3.18079 4.10833 3.18628 4.06163 3.18195Z" fill="#075BA3"/>
<path d="M35.8279 28.3995H36.4653C37.1836 28.3995 37.7153 28.1931 38.0602 27.7803C38.4051 27.3675 38.5804 26.628 38.5861 25.5616V19.5618C38.5861 17.6927 39.3969 16.5193 41.0184 16.0416V15.9613C39.3969 15.4797 38.5861 14.3063 38.5861 12.4411V6.44127C38.5861 5.37489 38.4127 4.63435 38.0659 4.21964C37.7191 3.80494 37.1874 3.59854 36.471 3.60045H35.8336V-1.18827e-05H38.0659C39.2328 -0.0486281 40.3741 0.352403 41.2557 1.12083C42.0826 1.86615 42.4952 2.97267 42.4933 4.44037V11.799C42.4933 12.7335 42.6657 13.367 43.0106 13.6995C43.3555 14.0321 44.0224 14.1993 45.0114 14.2012V17.8017C44.0281 17.8017 43.3612 17.9679 43.0106 18.3004C42.66 18.633 42.4876 19.2665 42.4933 20.201V27.5596C42.4933 29.0273 42.0807 30.1348 41.2557 30.882C40.3737 31.6494 39.2325 32.0494 38.0659 32H35.8336L35.8279 28.3995Z" fill="#075BA3"/>
<path d="M30.9062 32H28.6739C27.5073 32.0494 26.3661 31.6494 25.4841 30.882C24.6571 30.1329 24.2446 29.0254 24.2465 27.5596V20.201C24.2465 19.2665 24.074 18.633 23.7291 18.3005C23.3842 17.9679 22.7154 17.8017 21.7227 17.8017V14.2012C22.7059 14.2012 23.3728 14.034 23.7234 13.6995C24.074 13.3651 24.2465 12.7316 24.2408 11.799V4.44039C24.2408 2.97268 24.6533 1.86617 25.4784 1.12085C26.3614 0.351032 27.505 -0.0500936 28.6739 5.09666e-06H30.9062V3.60047H30.2688C29.5504 3.60047 29.0188 3.80687 28.6739 4.21966C28.329 4.63245 28.1565 5.37299 28.1565 6.44128V12.4411C28.1565 14.3063 27.3448 15.4797 25.7213 15.9613V16.053C27.3448 16.5327 28.1565 17.7061 28.1565 19.5732V25.5616C28.1565 26.628 28.329 27.3676 28.6739 27.7804C29.0188 28.1931 29.5504 28.3995 30.2688 28.3995H30.9062V32Z" fill="#075BA3"/>
</g>
<path d="M58.6387 1.20312V14H56.2217V1.20312H58.6387ZM63.7979 6.73145V8.63867H58.0059V6.73145H63.7979ZM64.4746 1.20312V3.11035H58.0059V1.20312H64.4746ZM71.9189 3.76074H74.2568V10.4668C74.2568 11.2578 74.0752 11.9287 73.7119 12.4795C73.3545 13.0244 72.8564 13.4375 72.2178 13.7188C71.585 14 70.8525 14.1406 70.0205 14.1406C69.1885 14.1406 68.4531 14 67.8145 13.7188C67.1758 13.4375 66.6748 13.0244 66.3115 12.4795C65.9541 11.9287 65.7754 11.2578 65.7754 10.4668V3.76074H68.0957V10.4668C68.0957 10.8945 68.1719 11.2461 68.3242 11.5215C68.4824 11.7969 68.7051 11.999 68.9922 12.1279C69.2793 12.2568 69.6221 12.3213 70.0205 12.3213C70.4248 12.3213 70.7676 12.2568 71.0488 12.1279C71.3301 11.999 71.5439 11.7969 71.6904 11.5215C71.8428 11.2461 71.9189 10.8945 71.9189 10.4668V3.76074ZM85.0938 3.76074V14H82.7646L78.4316 7.20605V14H76.1025V3.76074H78.4316L82.7646 10.5547V3.76074H85.0938ZM89.3477 3.76074V14H87.0186V3.76074H89.3477ZM95.8867 3.76074L91.5889 8.91992L89.1631 11.293L88.5918 9.1748L90.2793 7.02148L92.9775 3.76074H95.8867ZM93.2588 14L90.0859 9.35059L91.835 7.97949L96.0273 14H93.2588ZM101.872 3.76074V14H99.543V3.76074H101.872ZM105.247 3.76074V5.59766H96.2295V3.76074H105.247ZM112.27 11.293C112.27 11.1113 112.234 10.9473 112.164 10.8008C112.1 10.6543 111.991 10.5225 111.839 10.4053C111.687 10.2881 111.476 10.1768 111.206 10.0713C110.942 9.96582 110.611 9.86621 110.213 9.77246C109.586 9.62012 109.038 9.45312 108.569 9.27148C108.101 9.08984 107.708 8.87598 107.392 8.62988C107.081 8.38379 106.847 8.09375 106.688 7.75977C106.536 7.41992 106.46 7.02441 106.46 6.57324C106.46 6.13965 106.554 5.74414 106.741 5.38672C106.935 5.02344 107.204 4.70996 107.55 4.44629C107.901 4.18262 108.314 3.98047 108.789 3.83984C109.27 3.69336 109.794 3.62012 110.362 3.62012C111.188 3.62012 111.912 3.75195 112.533 4.01562C113.16 4.2793 113.646 4.64844 113.992 5.12305C114.338 5.5918 114.511 6.14844 114.511 6.79297H112.182C112.182 6.52344 112.111 6.28027 111.971 6.06348C111.836 5.84082 111.634 5.66211 111.364 5.52734C111.095 5.39258 110.761 5.3252 110.362 5.3252C109.981 5.3252 109.665 5.38379 109.413 5.50098C109.167 5.6123 108.982 5.75879 108.859 5.94043C108.742 6.11621 108.684 6.30371 108.684 6.50293C108.684 6.66699 108.719 6.81641 108.789 6.95117C108.865 7.08008 108.982 7.2002 109.141 7.31152C109.305 7.41699 109.519 7.51953 109.782 7.61914C110.046 7.71289 110.365 7.80957 110.74 7.90918C111.361 8.0498 111.906 8.2168 112.375 8.41016C112.85 8.59766 113.242 8.82324 113.553 9.08691C113.869 9.35059 114.106 9.6582 114.265 10.0098C114.423 10.3613 114.502 10.7686 114.502 11.2314C114.502 11.6885 114.408 12.0986 114.221 12.4619C114.033 12.8193 113.761 13.124 113.403 13.376C113.052 13.6221 112.63 13.8125 112.138 13.9473C111.651 14.0762 111.106 14.1406 110.503 14.1406C109.964 14.1406 109.434 14.0762 108.912 13.9473C108.391 13.8184 107.919 13.6191 107.497 13.3496C107.075 13.0742 106.738 12.7256 106.486 12.3037C106.234 11.8818 106.108 11.3779 106.108 10.792H108.446C108.446 11.085 108.493 11.3369 108.587 11.5479C108.687 11.7588 108.827 11.9316 109.009 12.0664C109.196 12.1953 109.425 12.292 109.694 12.3564C109.964 12.415 110.269 12.4443 110.608 12.4443C111.007 12.4443 111.329 12.3887 111.575 12.2773C111.821 12.166 111.997 12.0225 112.103 11.8467C112.214 11.6709 112.27 11.4863 112.27 11.293ZM118.598 3.76074V14H116.269V3.76074H118.598ZM129.76 8.65625V9.11328C129.76 9.89258 129.646 10.5928 129.417 11.2139C129.194 11.8291 128.875 12.3564 128.459 12.7959C128.043 13.2295 127.548 13.5635 126.974 13.7979C126.399 14.0264 125.764 14.1406 125.066 14.1406C124.369 14.1406 123.733 14.0264 123.159 13.7979C122.585 13.5635 122.087 13.2295 121.665 12.7959C121.243 12.3564 120.918 11.8291 120.689 11.2139C120.461 10.5928 120.347 9.89258 120.347 9.11328V8.65625C120.347 7.87695 120.461 7.17969 120.689 6.56445C120.918 5.94336 121.24 5.41309 121.656 4.97363C122.072 4.53418 122.567 4.2002 123.142 3.97168C123.716 3.7373 124.352 3.62012 125.049 3.62012C125.746 3.62012 126.382 3.7373 126.956 3.97168C127.53 4.2002 128.025 4.53418 128.441 4.97363C128.863 5.41309 129.188 5.94336 129.417 6.56445C129.646 7.17969 129.76 7.87695 129.76 8.65625ZM127.431 9.11328V8.63867C127.431 8.12891 127.375 7.67773 127.264 7.28516C127.158 6.88672 127.003 6.55273 126.798 6.2832C126.599 6.01367 126.35 5.80859 126.051 5.66797C125.758 5.52148 125.424 5.44824 125.049 5.44824C124.674 5.44824 124.337 5.52148 124.038 5.66797C123.745 5.80859 123.496 6.01367 123.291 6.2832C123.092 6.55273 122.939 6.88672 122.834 7.28516C122.729 7.67773 122.676 8.12891 122.676 8.63867V9.11328C122.676 9.62305 122.729 10.0771 122.834 10.4756C122.939 10.8682 123.095 11.2021 123.3 11.4775C123.511 11.7529 123.763 11.9639 124.056 12.1104C124.354 12.251 124.691 12.3213 125.066 12.3213C125.441 12.3213 125.775 12.251 126.068 12.1104C126.361 11.9639 126.607 11.7529 126.807 11.4775C127.012 11.2021 127.167 10.8682 127.272 10.4756C127.378 10.0771 127.431 9.62305 127.431 9.11328ZM140.43 8.65625V9.11328C140.43 9.89258 140.315 10.5928 140.087 11.2139C139.864 11.8291 139.545 12.3564 139.129 12.7959C138.713 13.2295 138.218 13.5635 137.644 13.7979C137.069 14.0264 136.434 14.1406 135.736 14.1406C135.039 14.1406 134.403 14.0264 133.829 13.7979C133.255 13.5635 132.757 13.2295 132.335 12.7959C131.913 12.3564 131.588 11.8291 131.359 11.2139C131.131 10.5928 131.017 9.89258 131.017 9.11328V8.65625C131.017 7.87695 131.131 7.17969 131.359 6.56445C131.588 5.94336 131.91 5.41309 132.326 4.97363C132.742 4.53418 133.237 4.2002 133.812 3.97168C134.386 3.7373 135.021 3.62012 135.719 3.62012C136.416 3.62012 137.052 3.7373 137.626 3.97168C138.2 4.2002 138.695 4.53418 139.111 4.97363C139.533 5.41309 139.858 5.94336 140.087 6.56445C140.315 7.17969 140.43 7.87695 140.43 8.65625ZM138.101 9.11328V8.63867C138.101 8.12891 138.045 7.67773 137.934 7.28516C137.828 6.88672 137.673 6.55273 137.468 6.2832C137.269 6.01367 137.02 5.80859 136.721 5.66797C136.428 5.52148 136.094 5.44824 135.719 5.44824C135.344 5.44824 135.007 5.52148 134.708 5.66797C134.415 5.80859 134.166 6.01367 133.961 6.2832C133.762 6.55273 133.609 6.88672 133.504 7.28516C133.398 7.67773 133.346 8.12891 133.346 8.63867V9.11328C133.346 9.62305 133.398 10.0771 133.504 10.4756C133.609 10.8682 133.765 11.2021 133.97 11.4775C134.181 11.7529 134.433 11.9639 134.726 12.1104C135.024 12.251 135.361 12.3213 135.736 12.3213C136.111 12.3213 136.445 12.251 136.738 12.1104C137.031 11.9639 137.277 11.7529 137.477 11.4775C137.682 11.2021 137.837 10.8682 137.942 10.4756C138.048 10.0771 138.101 9.62305 138.101 9.11328ZM151.012 3.76074V14H148.683L144.35 7.20605V14H142.021V3.76074H144.35L148.683 10.5547V3.76074H151.012ZM155.424 3.76074V14H153.095V3.76074H155.424ZM160.926 14H158.518L158.526 12.1719H160.926C161.564 12.1719 162.083 12.0576 162.481 11.8291C162.88 11.5947 163.17 11.249 163.352 10.792C163.539 10.335 163.633 9.77539 163.633 9.11328V8.63867C163.633 8.14648 163.58 7.70996 163.475 7.3291C163.375 6.94824 163.217 6.63184 163 6.37988C162.783 6.12207 162.502 5.92871 162.156 5.7998C161.816 5.66504 161.406 5.59766 160.926 5.59766H158.465V3.76074H160.926C161.67 3.76074 162.35 3.88086 162.965 4.12109C163.58 4.35547 164.11 4.68945 164.556 5.12305C165.007 5.55664 165.355 6.07227 165.602 6.66992C165.848 7.26758 165.971 7.92969 165.971 8.65625V9.11328C165.971 10.0742 165.754 10.9238 165.32 11.6621C164.893 12.3945 164.301 12.9688 163.545 13.3848C162.789 13.7949 161.916 14 160.926 14ZM159.836 3.76074V14H157.507V3.76074H159.836ZM174.979 12.1719V14H169.108V12.1719H174.979ZM169.891 3.76074V14H167.562V3.76074H169.891ZM174.224 7.79492V9.62305H169.108V7.79492H174.224ZM174.979 3.76074V5.59766H169.108V3.76074H174.979ZM56.2217 17.2031H60.8711C61.8438 17.2031 62.6787 17.3496 63.376 17.6426C64.0732 17.9355 64.6094 18.3691 64.9844 18.9434C65.3594 19.5176 65.5469 20.2236 65.5469 21.0615C65.5469 21.7236 65.4297 22.2979 65.1953 22.7842C64.9609 23.2705 64.6299 23.6777 64.2021 24.0059C63.7803 24.334 63.2822 24.5918 62.708 24.7793L61.9521 25.166H57.8477L57.8301 23.2588H60.8975C61.3955 23.2588 61.8086 23.1709 62.1367 22.9951C62.4648 22.8193 62.7109 22.5762 62.875 22.2656C63.0449 21.9551 63.1299 21.6006 63.1299 21.2021C63.1299 20.7744 63.0479 20.4053 62.8838 20.0947C62.7197 19.7783 62.4707 19.5352 62.1367 19.3652C61.8027 19.1953 61.3809 19.1104 60.8711 19.1104H58.6387V30H56.2217V17.2031ZM63.4463 30L60.4844 24.2695L63.042 24.2607L66.0391 29.877V30H63.4463ZM74.8193 28.1719V30H68.9482V28.1719H74.8193ZM69.7305 19.7607V30H67.4014V19.7607H69.7305ZM74.0635 23.7949V25.623H68.9482V23.7949H74.0635ZM74.8193 19.7607V21.5977H68.9482V19.7607H74.8193ZM84.874 24.5684V28.7344C84.6982 28.9277 84.4287 29.1357 84.0654 29.3584C83.708 29.5752 83.2451 29.7598 82.6768 29.9121C82.1084 30.0645 81.4229 30.1406 80.6201 30.1406C79.9111 30.1406 79.2637 30.0322 78.6777 29.8154C78.0918 29.5986 77.5879 29.2793 77.166 28.8574C76.7441 28.4297 76.4189 27.9082 76.1904 27.293C75.9619 26.6777 75.8477 25.9746 75.8477 25.1836V24.5771C75.8477 23.7861 75.959 23.0859 76.1816 22.4766C76.4043 21.8613 76.7207 21.3398 77.1309 20.9121C77.541 20.4844 78.0273 20.1621 78.5898 19.9453C79.1582 19.7227 79.7852 19.6113 80.4707 19.6113C81.4434 19.6113 82.2373 19.7607 82.8525 20.0596C83.4736 20.3525 83.9453 20.7598 84.2676 21.2812C84.5898 21.8027 84.7891 22.4004 84.8652 23.0742H82.6152C82.5625 22.7344 82.457 22.4443 82.2988 22.2041C82.1465 21.958 81.9268 21.7705 81.6396 21.6416C81.3584 21.5127 80.9922 21.4482 80.541 21.4482C80.1777 21.4482 79.8496 21.5127 79.5566 21.6416C79.2637 21.7705 79.0146 21.9668 78.8096 22.2305C78.6045 22.4883 78.4492 22.8105 78.3438 23.1973C78.2383 23.584 78.1855 24.0381 78.1855 24.5596V25.1836C78.1855 25.6992 78.2383 26.1533 78.3438 26.5459C78.4551 26.9385 78.6191 27.2666 78.8359 27.5303C79.0527 27.7881 79.3223 27.9844 79.6445 28.1191C79.9727 28.2539 80.3477 28.3213 80.7695 28.3213C81.2793 28.3213 81.6719 28.2686 81.9473 28.1631C82.2227 28.0518 82.4189 27.9521 82.5361 27.8643V26.2031H80.4443V24.5684H84.874ZM89.0488 19.7607V30H86.7197V19.7607H89.0488ZM96.8711 27.293C96.8711 27.1113 96.8359 26.9473 96.7656 26.8008C96.7012 26.6543 96.5928 26.5225 96.4404 26.4053C96.2881 26.2881 96.0771 26.1768 95.8076 26.0713C95.5439 25.9658 95.2129 25.8662 94.8145 25.7725C94.1875 25.6201 93.6396 25.4531 93.1709 25.2715C92.7021 25.0898 92.3096 24.876 91.9932 24.6299C91.6826 24.3838 91.4482 24.0938 91.29 23.7598C91.1377 23.4199 91.0615 23.0244 91.0615 22.5732C91.0615 22.1396 91.1553 21.7441 91.3428 21.3867C91.5361 21.0234 91.8057 20.71 92.1514 20.4463C92.5029 20.1826 92.916 19.9805 93.3906 19.8398C93.8711 19.6934 94.3955 19.6201 94.9639 19.6201C95.79 19.6201 96.5137 19.752 97.1348 20.0156C97.7617 20.2793 98.248 20.6484 98.5938 21.123C98.9395 21.5918 99.1123 22.1484 99.1123 22.793H96.7832C96.7832 22.5234 96.7129 22.2803 96.5723 22.0635C96.4375 21.8408 96.2354 21.6621 95.9658 21.5273C95.6963 21.3926 95.3623 21.3252 94.9639 21.3252C94.583 21.3252 94.2666 21.3838 94.0146 21.501C93.7686 21.6123 93.584 21.7588 93.4609 21.9404C93.3438 22.1162 93.2852 22.3037 93.2852 22.5029C93.2852 22.667 93.3203 22.8164 93.3906 22.9512C93.4668 23.0801 93.584 23.2002 93.7422 23.3115C93.9062 23.417 94.1201 23.5195 94.3838 23.6191C94.6475 23.7129 94.9668 23.8096 95.3418 23.9092C95.9629 24.0498 96.5078 24.2168 96.9766 24.4102C97.4512 24.5977 97.8438 24.8232 98.1543 25.0869C98.4707 25.3506 98.708 25.6582 98.8662 26.0098C99.0244 26.3613 99.1035 26.7686 99.1035 27.2314C99.1035 27.6885 99.0098 28.0986 98.8223 28.4619C98.6348 28.8193 98.3623 29.124 98.0049 29.376C97.6533 29.6221 97.2314 29.8125 96.7393 29.9473C96.2529 30.0762 95.708 30.1406 95.1045 30.1406C94.5654 30.1406 94.0352 30.0762 93.5137 29.9473C92.9922 29.8184 92.5205 29.6191 92.0986 29.3496C91.6768 29.0742 91.3398 28.7256 91.0879 28.3037C90.8359 27.8818 90.71 27.3779 90.71 26.792H93.0479C93.0479 27.085 93.0947 27.3369 93.1885 27.5479C93.2881 27.7588 93.4287 27.9316 93.6104 28.0664C93.7979 28.1953 94.0264 28.292 94.2959 28.3564C94.5654 28.415 94.8701 28.4443 95.21 28.4443C95.6084 28.4443 95.9307 28.3887 96.1768 28.2773C96.4229 28.166 96.5986 28.0225 96.7041 27.8467C96.8154 27.6709 96.8711 27.4863 96.8711 27.293ZM105.704 19.7607V30H103.375V19.7607H105.704ZM109.079 19.7607V21.5977H100.062V19.7607H109.079ZM117.78 28.1719V30H111.909V28.1719H117.78ZM112.691 19.7607V30H110.362V19.7607H112.691ZM117.024 23.7949V25.623H111.909V23.7949H117.024ZM117.78 19.7607V21.5977H111.909V19.7607H117.78ZM119.055 19.7607H123.212C123.839 19.7607 124.404 19.8281 124.908 19.9629C125.418 20.0918 125.849 20.2881 126.2 20.5518C126.558 20.8096 126.83 21.1318 127.018 21.5186C127.205 21.8994 127.299 22.3418 127.299 22.8457C127.299 23.4199 127.199 23.9062 127 24.3047C126.801 24.7031 126.522 25.0312 126.165 25.2891C125.808 25.541 125.389 25.749 124.908 25.9131L124.152 26.3438H120.558L120.54 24.5068H123.238C123.619 24.5068 123.938 24.4482 124.196 24.3311C124.454 24.2139 124.647 24.0469 124.776 23.8301C124.905 23.6133 124.97 23.3584 124.97 23.0654C124.97 22.7607 124.902 22.5 124.768 22.2832C124.639 22.0605 124.442 21.8906 124.179 21.7734C123.921 21.6562 123.599 21.5977 123.212 21.5977H121.393V30H119.055V19.7607ZM125.198 30L122.702 25.4736L125.163 25.4561L127.703 29.8945V30H125.198Z" fill="#005AA3"/>
<defs>
<clipPath id="clip0_355_6149">
<rect width="45" height="32" fill="white"/>
</clipPath>
</defs>
</svg>
